<svg width="138" height="41" viewBox="0 0 138 41" fill="none" xmlns="http://www.w3.org/2000/svg">
<path d="M48.0964 19.0753V2.54346H54.2039C55.4763 2.54346 56.2398 2.79779 57.0032 3.05213C58.7845 3.81513 59.548 5.34115 59.548 6.86716C59.548 8.39317 58.7845 9.41051 57.5122 10.4279C59.2935 10.9365 60.5659 12.2082 60.5659 14.2429C60.5659 16.5319 59.2935 18.0579 57.0032 18.8209C56.2398 19.0753 55.2218 19.0753 53.9495 19.0753H48.0964ZM55.4763 5.34114C55.2218 5.34114 54.7129 5.08681 53.9495 5.08681H50.8957V9.41051H53.695C54.7129 9.41051 55.2218 9.15617 55.4763 9.15617C56.2398 8.90184 56.4942 8.13883 56.4942 7.37583C56.7487 6.61282 56.2398 5.84982 55.4763 5.34114ZM56.4942 12.2082C55.9853 11.9539 55.4763 11.9539 54.7129 11.9539H50.8957V16.5319H54.2039C55.2218 16.5319 55.7308 16.5319 56.2398 16.2776C57.0032 15.7689 57.5122 15.2602 57.5122 14.2429C57.7666 13.2255 57.2577 12.7169 56.4942 12.2082Z" fill="white"/>
<path d="M77.107 19.0753V2.54346H79.9063V19.0753H77.107Z" fill="white"/>
<path d="M97.7198 19.0753V2.54346H100.519V19.0753H97.7198Z" fill="white"/>
<path d="M109.68 2.54346C111.462 2.54346 113.243 3.05213 114.261 3.5608V6.35849C112.734 5.34115 111.207 5.08681 109.68 5.08681C108.153 5.08681 106.881 5.59548 106.881 6.86716C106.881 10.1735 115.279 8.90184 115.279 14.4972C115.279 17.5492 112.734 19.5839 108.917 19.5839C106.372 19.5839 104.591 18.8209 103.318 18.0579L104.336 15.5146C105.354 16.0232 106.881 16.7862 108.917 16.7862C110.698 16.7862 112.225 16.0232 112.225 14.7516C112.225 11.1909 103.827 12.7169 103.827 7.12149C103.827 4.06947 106.118 2.54346 109.68 2.54346Z" fill="white"/>
<path d="M128.512 19.0753V11.9539H120.623V19.0753H117.824V2.54346H120.623V9.41051H128.512V2.54346H131.565V19.0753H128.512Z" fill="white"/>
<path d="M54.4584 22.1272C56.2398 22.1272 57.5122 22.3815 59.039 23.1445L58.2756 25.4336C57.5122 25.1792 56.4943 24.6706 54.9674 24.6706C51.9136 24.6706 49.8778 27.2139 49.8778 30.5203C49.8778 33.8266 51.6592 36.37 54.9674 36.37C56.4943 36.37 57.5122 35.8613 58.2756 35.607L59.039 37.896C57.5122 38.4047 56.2398 38.9133 54.4584 38.9133C49.6233 38.9133 46.5696 35.3526 46.5696 30.5203C46.5696 25.9422 49.3688 22.1272 54.4584 22.1272Z" fill="white"/>
<path d="M116.297 22.1272C118.078 22.1272 119.35 22.3815 120.877 23.1445L120.114 25.4336C119.35 25.1792 118.333 24.6706 116.551 24.6706C113.497 24.6706 111.462 27.2139 111.462 30.5203C111.462 33.8266 113.243 36.37 116.551 36.37C118.078 36.37 119.096 35.8613 120.114 35.607L120.877 37.896C119.35 38.4047 118.078 38.9133 116.297 38.9133C111.462 38.9133 108.408 35.3526 108.408 30.5203C108.662 25.9422 111.462 22.1272 116.297 22.1272Z" fill="white"/>
<path d="M75.0712 30.5204C75.0712 35.6071 72.0175 39.1678 67.1824 39.1678C62.3473 39.1678 59.2935 35.8614 59.2935 30.7747C59.2935 25.688 62.3473 22.3816 67.1824 22.3816C72.0175 22.1273 75.0712 25.4337 75.0712 30.5204ZM72.2719 30.5204C72.2719 26.9597 70.2361 24.6706 67.4368 24.6706C64.6376 24.6706 62.6017 26.9597 62.6017 30.5204C62.6017 34.081 64.6376 36.3701 67.4368 36.3701C70.2361 36.3701 72.2719 34.081 72.2719 30.5204Z" fill="white"/>
<path d="M77.107 32.5549V22.3815H79.9063V32.8093C79.9063 35.607 81.4331 36.6243 83.7234 36.6243C86.0138 36.6243 87.5406 35.607 87.5406 32.8093V22.1272H90.3399V32.3006C90.3399 36.8786 87.7951 38.659 83.7234 38.659C79.6518 38.9133 77.107 36.8786 77.107 32.5549Z" fill="white"/>
<path d="M95.684 26.7052C95.684 27.2139 95.684 28.2312 95.684 28.9943V38.9133H92.8847V22.1272H95.9385L103.573 33.318C103.573 32.8093 103.573 31.7919 103.573 31.0289V22.1272H106.372V38.659H103.827L95.684 26.7052Z" fill="white"/>
<path d="M123.168 38.659V22.1272H125.967V38.659H123.168Z" fill="white"/>
<path d="M128.512 38.659V22.1272H131.565V36.1156H137.927V38.659H128.512Z" fill="white"/>
<path d="M95.4295 2.54346H82.1966V5.34114H87.2862V19.0753H90.3399V5.34114H95.4295V2.54346Z" fill="white"/>
<path d="M72.0174 19.0753C69.7271 13.9885 68.9637 12.7169 67.9458 12.7169H65.401V19.0753H62.6017V2.54346H68.2003C72.5264 2.54346 74.0533 4.83247 74.0533 7.37583C74.0533 9.66484 72.7809 10.9365 70.9995 11.6995C71.763 12.2082 72.5264 13.7342 75.3257 19.0753H72.0174ZM68.2003 5.08681H65.1465V10.1735H67.9458C70.2361 10.1735 71.254 9.15617 71.254 7.63016C71.254 6.35849 70.2361 5.08681 68.2003 5.08681Z" fill="white"/>
<path d="M39.9531 10.1736C39.9531 15.2603 35.627 19.584 30.5374 19.584C25.4479 19.584 20.8672 15.5146 20.8672 10.1736C20.8672 5.08688 25.1934 0.763184 30.5374 0.763184C35.8815 0.763184 39.9531 5.08688 39.9531 10.1736Z" fill="white"/>
<path d="M18.8314 10.1736C18.8314 15.2603 14.5053 19.584 9.41571 19.584C4.32614 19.584 0 15.5146 0 10.1736C0 5.08688 4.32614 0.763184 9.41571 0.763184C14.7598 0.763184 18.8314 5.08688 18.8314 10.1736Z" fill="white"/>
<path d="M39.9531 31.0291C39.9531 36.1158 35.627 40.4395 30.5374 40.4395C25.4478 40.4395 21.1217 36.1158 21.1217 31.0291C21.1217 25.688 25.4478 21.6187 30.5374 21.6187C35.627 21.6187 39.9531 25.9424 39.9531 31.0291Z" fill="white"/>
<path d="M18.8314 31.0291C18.8314 36.1158 14.5053 40.4395 9.41571 40.4395C4.32614 40.4395 0 36.1158 0 31.0291C0 25.688 4.32614 21.6187 9.41571 21.6187C14.7598 21.6187 18.8314 25.9424 18.8314 31.0291Z" fill="white"/>
</svg>
