<svg width="256" height="44" viewBox="0 0 256 44" fill="none" xmlns="http://www.w3.org/2000/svg">
<path d="M154.972 1.52612H152.682L146.829 16.5319H149.628L151.155 12.7169H156.499L158.026 16.5319H161.079L154.972 1.52612ZM152.173 10.4279L153.191 7.37583C153.7 6.10416 153.954 5.59549 153.954 5.08682C154.209 5.59549 154.209 6.35849 154.717 7.37583L155.735 10.4279H152.173Z" fill="white"/>
<path d="M183.983 5.34106C180.929 5.34106 179.147 7.88442 179.147 10.9364C179.147 13.7341 180.674 16.5318 184.746 16.5318C186.018 16.5318 187.291 16.2775 188.563 15.5145L187.8 13.7341C187.036 14.2428 186.273 14.4971 185 14.4971C183.219 14.4971 181.947 13.4798 181.947 11.6994H188.818V11.1908C188.563 7.63008 187.036 5.34106 183.983 5.34106ZM181.692 9.9191C181.692 8.64742 182.456 7.37575 183.728 7.37575C185.255 7.37575 185.764 8.64742 185.764 9.9191H181.692Z" fill="white"/>
<path d="M230.807 5.34106C227.753 5.34106 225.971 7.88442 225.971 10.9364C225.971 13.7341 227.498 16.5318 231.57 16.5318C232.842 16.5318 234.115 16.2775 235.387 15.5145L234.624 13.7341C233.86 14.2428 233.097 14.4971 231.825 14.4971C230.043 14.4971 228.771 13.4798 228.771 11.6994H235.642V11.1908C235.642 7.63008 233.86 5.34106 230.807 5.34106ZM228.771 9.9191C228.771 8.64742 229.534 7.37575 230.807 7.37575C232.333 7.37575 232.842 8.64742 232.842 9.9191H228.771Z" fill="white"/>
<path d="M252.437 2.54321L249.638 3.30622V5.84957H247.602V7.88425H249.638V13.9883C249.638 15.7686 250.91 16.786 252.692 16.786C253.71 16.786 254.982 16.5317 255.745 16.023L254.982 14.2426C254.473 14.497 253.964 14.7513 253.455 14.7513C252.692 14.7513 252.437 14.497 252.437 13.4796V7.88425H253.201C254.473 7.88425 254.728 7.12125 254.982 6.86691L255.491 5.84957H252.437V2.54321Z" fill="white"/>
<path d="M174.312 5.34106C171.768 5.34106 170.241 6.61274 170.241 8.64742C170.241 12.2081 175.33 11.4451 175.33 13.4798C175.33 14.2428 174.567 14.4971 173.549 14.4971C172.531 14.4971 171.513 14.2428 170.495 13.7341V13.9885L169.986 15.7688C170.75 16.2775 172.277 16.7862 173.803 16.7862C176.094 16.7862 178.13 15.7688 178.13 13.4798C178.13 9.66477 173.04 10.4278 173.04 8.64742C173.04 7.88442 173.549 7.63008 174.567 7.63008C175.585 7.63008 176.348 7.88442 177.112 8.13875L177.621 6.10407C176.603 5.5954 175.33 5.34106 174.312 5.34106Z" fill="white"/>
<path d="M194.162 5.34106C191.617 5.34106 190.09 6.61274 190.09 8.64742C190.09 12.2081 195.18 11.4451 195.18 13.4798C195.18 14.2428 194.416 14.4971 193.398 14.4971C192.38 14.4971 191.362 14.2428 190.599 13.7341L190.09 15.7688C190.854 16.2775 192.126 16.5318 193.653 16.5318C195.943 16.5318 197.979 15.5145 197.979 13.2255C197.979 9.41043 192.889 10.1734 192.889 8.39309C192.889 7.63008 193.398 7.37575 194.416 7.37575C195.434 7.37575 196.198 7.63008 196.961 7.88442L197.47 5.84974C196.198 5.5954 195.18 5.34106 194.162 5.34106Z" fill="white"/>
<path d="M203.068 5.34106C200.524 5.34106 198.997 6.61274 198.997 8.64742C198.997 12.2081 204.086 11.4451 204.086 13.4798C204.086 14.2428 203.323 14.4971 202.305 14.4971C201.287 14.4971 200.269 14.2428 199.506 13.7341L198.997 15.7688C199.76 16.2775 201.033 16.5318 202.56 16.5318C204.85 16.5318 206.886 15.5145 206.886 13.2255C206.886 9.41043 201.796 10.1734 201.796 8.39309C201.796 7.63008 202.305 7.37575 203.323 7.37575C204.341 7.37575 205.104 7.63008 205.868 7.88442L206.377 5.84974C205.359 5.5954 204.341 5.34106 203.068 5.34106Z" fill="white"/>
<path d="M165.406 5.34106C162.861 5.34106 161.334 6.61274 161.334 8.64742C161.334 12.2081 166.424 11.4451 166.424 13.4798C166.424 14.2428 165.66 14.4971 164.642 14.4971C163.624 14.4971 162.606 14.2428 161.588 13.7341L162.606 16.5318C163.115 16.7862 163.879 16.7862 164.642 16.7862C166.933 16.7862 168.968 15.7688 168.968 13.4798C168.968 9.66477 163.879 10.4278 163.879 8.64742C163.879 7.88442 164.388 7.63008 165.406 7.63008C166.424 7.63008 167.187 7.88442 167.95 8.13875L168.459 6.10407C167.696 5.5954 166.424 5.34106 165.406 5.34106Z" fill="white"/>
<path d="M208.158 5.34106V11.4451V16.5318H210.957V8.90176C211.721 8.13875 212.739 7.88442 213.502 7.88442C214.774 7.88442 215.029 8.90176 215.029 10.1734V16.5318H217.828V9.41043V8.90176C218.592 8.13875 219.61 7.88442 220.373 7.88442C221.645 7.88442 221.9 8.90176 221.9 10.1734V16.5318H224.699V9.41043C224.699 6.61274 222.918 5.5954 221.136 5.5954C219.864 5.5954 218.592 6.10407 217.319 7.37575C216.81 6.35841 215.792 5.5954 214.52 5.5954C213.248 5.5954 211.975 6.35841 210.957 7.12141C210.703 6.61274 210.194 6.35841 209.939 6.10407L208.158 5.34106Z" fill="white"/>
<path d="M237.169 5.34106V11.4451V16.5318H239.968V8.90176C240.731 8.13875 241.749 7.88442 242.513 7.88442C243.785 7.88442 244.294 8.90176 244.294 10.1734V16.5318H247.093V9.41043C247.093 6.35841 245.312 5.5954 243.531 5.5954C242.258 5.5954 240.986 6.10407 239.968 7.12141H239.713C239.459 6.61274 238.95 6.35841 238.695 6.10407L237.169 5.34106Z" fill="white"/>
<path d="M50.1268 1.27148C45.2917 1.27148 42.2379 4.83218 42.2379 9.15588C42.2379 13.4796 44.7827 16.7859 49.8723 16.7859C51.3991 16.7859 52.926 16.5316 54.4529 15.7686C53.9439 15.2599 53.9439 14.4969 53.9439 13.4796C52.926 13.9882 51.6536 14.4969 50.3812 14.4969C47.3275 14.4969 45.2916 12.2079 45.2916 9.15588C45.2916 6.10385 47.073 3.81484 50.3812 3.81484C51.9081 3.81484 53.1805 4.06917 54.1984 4.83218V2.28883C53.1805 1.52582 51.9081 1.27148 50.1268 1.27148Z" fill="white"/>
<path d="M87.0261 0.254395H84.2269V15.7688C85.2448 16.2775 86.2627 16.5319 87.7896 16.5319C91.3523 16.5319 94.1516 14.2428 94.1516 10.6821C94.1516 7.37578 91.8612 5.3411 89.062 5.3411C88.2985 5.3411 87.5351 5.59544 87.0261 5.59544V0.254395ZM88.2985 14.2428C87.7896 14.2428 87.5351 14.2428 87.0261 13.9885V7.88445C87.2806 7.63012 87.7896 7.63012 88.553 7.63012C90.3343 7.63012 91.3523 8.90179 91.3523 10.9365C91.6068 12.7168 90.3344 14.2428 88.2985 14.2428Z" fill="white"/>
<path d="M118.836 0.254395H116.037V5.3411C115.528 5.3411 115.019 5.08676 114.51 5.08676C111.202 5.08676 108.657 7.37578 108.657 10.9365C108.657 14.4972 111.202 16.5319 114.764 16.5319C116.037 16.5319 117.564 16.2775 118.836 15.7688V0.254395ZM114.764 14.2428C112.728 14.2428 111.456 12.9712 111.456 10.9365C111.456 8.64746 112.728 7.37578 114.764 7.37578C115.273 7.37578 115.528 7.37578 116.037 7.63012V13.9885C115.782 14.2428 115.273 14.2428 114.764 14.2428Z" fill="white"/>
<path d="M135.886 5.34106C132.832 5.34106 131.051 7.88442 131.051 10.9364C131.051 13.7341 132.578 16.5318 136.649 16.5318C137.922 16.5318 139.194 16.2775 140.467 15.5145L139.703 13.7341C138.94 14.2428 138.176 14.4971 136.904 14.4971C135.123 14.4971 133.85 13.4798 133.85 11.6994H140.721V11.1908C140.721 7.63008 138.94 5.34106 135.886 5.34106ZM133.596 9.9191C133.596 8.64742 134.359 7.37575 135.631 7.37575C137.158 7.37575 137.667 8.64742 137.667 9.9191H133.596Z" fill="white"/>
<path d="M59.7969 5.34106C58.2701 5.34106 56.9976 5.5954 55.7253 6.35841L56.4887 8.13875C57.2521 7.63008 58.27 7.37575 59.2879 7.37575C60.5603 7.37575 61.3238 7.88442 61.3238 9.15609V9.41043H59.5424C58.5245 9.41043 57.5066 9.66476 56.7432 9.9191C54.9618 10.6821 54.1984 12.4625 55.4708 15.5145C58.5245 16.7862 60.3059 16.0231 61.5783 15.0058H61.8327C62.0872 15.2601 62.3417 15.5145 62.5962 15.5145L64.123 16.2775V10.4278V9.15609C64.123 6.61274 62.5962 5.34106 59.7969 5.34106ZM59.2879 14.4971C58.27 14.4971 57.7611 13.9885 57.7611 12.9711C57.7611 12.4625 58.0156 11.9538 58.5245 11.6994C58.779 11.4451 59.2879 11.4451 60.0514 11.4451H61.3238V13.7341C60.8148 13.9885 60.0514 14.4971 59.2879 14.4971Z" fill="white"/>
<path d="M66.1589 5.08667V6.86702V16.5318H68.9582V11.4451V8.9017C69.7216 8.13869 70.7395 7.88436 71.503 7.88436C72.7753 7.88436 73.0298 8.9017 73.0298 10.1734V16.5318H75.8291V9.15603V8.64736C76.5925 7.88436 77.6104 7.63002 78.3739 7.63002C79.6462 7.63002 79.9007 8.64736 79.9007 9.91904V16.2774H82.7V9.15603C82.7 6.35835 80.9186 5.341 79.1373 5.341C77.8649 5.341 76.5925 5.84968 75.3201 7.12135C74.8112 6.10401 73.7933 5.341 72.5209 5.341C71.2485 5.341 69.9761 6.10401 68.9582 6.86702C68.7037 6.35835 68.1948 6.10401 67.9403 5.84968L66.1589 5.08667Z" fill="white"/>
<path d="M101.531 5.34106C100.259 5.34106 99.2411 6.10407 98.4777 6.86708L98.2232 5.5954H95.9329V16.2775H98.7322V8.64742C99.4956 7.63008 100.514 7.37575 101.022 7.37575C102.04 7.37575 102.804 7.88442 102.804 7.88442V5.34106C102.295 5.5954 101.786 5.34106 101.531 5.34106Z" fill="white"/>
<path d="M105.603 0.762939C104.585 0.762939 103.822 1.52595 103.822 2.28895C103.822 3.30629 104.585 3.81496 105.603 3.81496C106.621 3.81496 107.384 3.05196 107.384 2.28895C107.384 1.27161 106.621 0.762939 105.603 0.762939ZM107.13 5.59531H104.331V16.2774H107.13V5.59531Z" fill="white"/>
<path d="M130.797 4.83252H128.761H126.725H125.198C122.144 4.83252 120.872 6.8672 120.872 8.90188C120.872 10.4279 121.635 11.6996 122.653 12.2082C121.89 12.7169 121.381 13.4799 121.381 14.2429C121.381 14.7516 121.635 15.2603 122.144 15.5146C121.126 16.0233 120.108 17.0406 120.108 18.058C120.108 19.8383 121.89 21.11 125.198 21.11C129.015 21.11 130.797 19.584 130.797 17.5493C130.797 13.4799 123.671 15.2603 123.671 13.4799C123.671 13.2256 123.671 12.9712 123.926 12.7169C124.18 12.7169 124.689 12.9712 125.198 12.9712C127.743 12.9712 129.779 11.4452 129.779 8.90188C129.779 8.13888 129.524 7.37587 129.015 6.61287H129.27C130.033 6.61287 130.542 6.1042 130.542 5.84986L130.797 4.83252ZM125.198 10.9366C123.926 10.9366 123.417 9.91923 123.417 8.90188C123.417 7.63021 124.18 6.8672 125.198 6.8672C126.47 6.8672 127.234 7.88454 127.234 8.90188C126.979 10.4279 126.216 10.9366 125.198 10.9366ZM125.198 19.3296C123.417 19.3296 122.144 18.5666 122.144 17.5493C122.144 16.7863 122.653 16.2776 122.908 16.0233C124.435 16.5319 127.743 16.2776 127.743 17.8036C127.997 18.821 126.979 19.3296 125.198 19.3296Z" fill="white"/>
<path d="M43.0013 23.6531H50.6357L50.1268 25.4334H45.2916V30.2658H50.1268V32.0461H45.2916V37.1328H50.8902V38.9132H43.2558V23.6531H43.0013Z" fill="white"/>
<path d="M52.926 27.977H54.7074L54.9619 29.2487C56.2343 28.2313 57.2522 27.7227 58.779 27.7227C60.5604 27.7227 62.0873 28.74 62.0873 31.5377V38.6591H60.0514V32.0464C60.0514 30.5203 59.797 29.2487 58.2701 29.2487C57.2522 29.2487 56.2343 29.7573 55.2164 30.7747V38.6591H53.1805V27.977H52.926Z" fill="white"/>
<path d="M63.1051 40.948C63.1051 39.9307 63.8685 38.9133 65.1409 38.1503C64.632 37.896 64.3775 37.3873 64.3775 36.8787C64.3775 36.37 64.632 35.607 65.6499 34.844C64.632 34.081 63.8685 33.0636 63.8685 31.5376C63.8685 29.5029 65.3954 27.7226 67.9402 27.7226C68.9581 27.7226 69.4671 27.9769 69.9761 28.2313H70.2305C70.7395 27.7226 71.5029 27.4683 72.5209 27.4683C72.7753 27.4683 73.0298 27.4683 73.2843 27.4683L72.7753 28.9943C72.5208 28.9943 72.2664 28.9943 72.0119 28.9943C71.7574 28.9943 71.2485 28.9943 70.994 29.2486C71.7574 30.0116 72.0119 31.029 72.0119 32.0463C72.0119 34.3353 70.2305 35.8613 67.6857 35.8613C67.1768 35.8613 66.6678 35.8613 66.4133 35.607C66.1589 36.1157 65.9044 36.37 65.9044 36.6243C65.9044 38.659 73.0298 36.8787 73.0298 40.948C73.0298 42.9827 70.994 44.2544 67.6857 44.2544C64.8865 44.0001 63.1051 42.7284 63.1051 40.948ZM71.2485 40.6937C71.2485 38.9133 67.9402 39.1677 66.1589 38.659C65.6499 38.9133 64.8865 39.422 64.8865 40.4394C64.8865 41.711 66.1589 42.474 67.9402 42.474C70.2305 42.474 71.2485 41.711 71.2485 40.6937ZM70.2305 31.5376C70.2305 30.2659 69.2126 29.2486 67.9402 29.2486C66.6678 29.2486 65.6499 30.0116 65.6499 31.5376C65.6499 32.8093 66.4134 33.8266 67.9402 33.8266C69.2126 33.8266 70.2305 33.0636 70.2305 31.5376Z" fill="white"/>
<path d="M74.8112 22.636H76.847V36.1158C76.847 36.8788 77.1015 37.1331 77.6104 37.1331C77.8649 37.1331 78.1194 37.1331 78.3739 36.8788L78.8828 38.4048C78.3739 38.6591 77.8649 38.6591 77.1015 38.6591C75.5746 38.6591 74.8112 37.8961 74.8112 36.3701V22.636Z" fill="white"/>
<path d="M79.9008 24.4162C79.9008 23.6532 80.4097 23.1445 81.1731 23.1445C81.9366 23.1445 82.4455 23.6532 82.4455 24.4162C82.4455 25.1792 81.9366 25.6879 81.1731 25.6879C80.4097 25.6879 79.9008 25.1792 79.9008 24.4162ZM80.1552 27.9769H82.191V38.659H80.1552V27.9769Z" fill="white"/>
<path d="M84.4814 36.37C85.2448 36.8787 86.0082 37.133 87.2806 37.133C88.553 37.133 89.571 36.6243 89.571 35.607C89.571 33.318 84.4814 34.081 84.4814 30.5203C84.4814 28.7399 85.7538 27.4683 88.2986 27.4683C89.3165 27.4683 90.3344 27.7226 91.0978 27.9769V29.7573C90.3344 29.5029 89.3165 29.2486 88.2986 29.2486C87.2806 29.2486 86.5172 29.5029 86.5172 30.5203C86.5172 32.8093 91.6068 32.0463 91.6068 35.607C91.6068 37.896 89.8254 38.9133 87.5351 38.9133C86.0082 38.9133 84.7359 38.4047 83.9724 37.896L84.4814 36.37Z" fill="white"/>
<path d="M93.3881 22.636H95.4239V29.2487C96.4418 28.2314 97.7142 27.7227 98.9866 27.7227C100.768 27.7227 102.295 28.74 102.295 31.5377V38.6591H100.259V32.0464C100.259 30.5204 99.75 29.2487 98.4776 29.2487C97.4597 29.2487 96.4418 29.7574 95.4239 30.7747V38.6591H93.3881V22.636Z" fill="white"/>
<path d="M0.503418 0V21.3642C0.503418 31.7919 6.10195 34.8439 8.64674 36.3699C9.15569 36.6243 17.299 40.6936 17.808 40.948L18.0625 41.2023L18.3169 40.948C18.8259 40.6936 26.9692 36.6243 27.4782 36.3699C30.023 34.8439 35.6215 32.0462 35.6215 21.3642V0H0.503418ZM1.26684 0.763006H14.4998V14.2428H1.26684V0.763006ZM16.0266 27.2139L15.7722 26.9595L16.0266 26.4509L16.2811 26.9595L16.0266 27.2139C16.2811 27.4682 16.2811 28.7399 17.0445 29.2486C17.0445 29.2486 16.7901 29.2486 16.2811 29.2486C16.2811 29.2486 16.2811 29.5029 16.0266 30.0116C15.7722 29.5029 15.7722 29.2486 15.7722 29.2486C15.5177 29.2486 15.0087 29.2486 15.0087 29.2486C16.0266 28.9942 16.0266 27.4682 16.0266 27.2139ZM16.0266 34.5896L15.7722 34.3353L16.0266 33.8266L16.2811 34.3353L16.0266 34.5896C16.2811 34.8439 16.2811 36.1156 17.0445 36.6243C17.0445 36.6243 16.7901 36.6243 16.2811 36.6243C16.2811 36.6243 16.2811 36.8786 16.0266 37.3873C15.7722 36.8786 15.7722 36.6243 15.7722 36.6243C15.5177 36.6243 15.0087 36.6243 15.0087 36.6243C16.0266 36.3699 16.0266 34.8439 16.0266 34.5896ZM17.299 33.0636C18.0625 32.5549 18.0625 31.0289 18.0625 31.0289L17.808 30.7746L18.0625 30.2659L18.3169 30.7746L18.0625 31.0289C18.0625 31.2832 18.0625 32.5549 18.8259 33.0636C18.8259 33.0636 18.5714 33.0636 18.0625 33.0636C18.0625 33.0636 18.0625 33.3179 17.808 33.8266C17.5535 33.3179 17.5535 33.0636 17.5535 33.0636H17.299ZM18.0625 23.6532L17.808 23.3988L18.0625 22.8902L18.3169 23.3988L18.0625 23.6532C18.3169 23.9075 18.3169 25.1792 19.0804 25.6879C19.0804 25.6879 18.8259 25.6879 18.3169 25.6879C18.3169 25.6879 18.3169 25.9422 18.0625 26.4509C17.808 25.9422 17.808 25.6879 17.808 25.6879C17.5535 25.6879 17.0445 25.6879 17.0445 25.6879C18.0625 25.1792 18.0625 23.6532 18.0625 23.6532ZM20.0983 34.5896L19.8438 34.3353L20.0983 33.8266L20.3528 34.3353L20.0983 34.5896C20.3528 34.8439 20.3528 36.1156 21.1162 36.6243C21.1162 36.6243 20.8617 36.6243 20.3528 36.6243C20.3528 36.6243 20.3528 36.8786 20.0983 37.3873C19.8438 36.8786 19.8438 36.6243 19.8438 36.6243C19.5893 36.6243 19.0804 36.6243 19.0804 36.6243C20.0983 36.3699 20.0983 34.8439 20.0983 34.5896ZM20.3528 29.5029C20.3528 29.5029 20.3528 29.7572 20.0983 30.2659C19.8438 29.7572 19.8438 29.5029 19.8438 29.5029C19.5893 29.5029 19.0804 29.5029 19.0804 29.5029C19.8438 28.9942 19.8438 27.4682 19.8438 27.4682L19.5893 27.2139L19.8438 26.7052L20.0983 27.2139L19.8438 27.4682C19.8438 27.7225 19.8438 28.9942 20.6072 29.5029C21.1162 29.5029 20.8617 29.5029 20.3528 29.5029ZM20.8617 20.8555V22.8902H19.5893V20.8555H16.2811V22.8902H15.0087V20.6012H13.9908V15.0058H15.2632C15.5177 14.7514 15.5177 14.4971 15.7722 14.4971C16.0266 14.4971 16.2811 14.4971 16.2811 15.0058H17.299C17.299 14.7514 17.5535 14.4971 18.0625 14.4971C18.3169 14.4971 18.5714 14.7514 18.5714 15.0058H19.5893C19.8438 14.7514 19.8438 14.4971 20.0983 14.4971C20.3528 14.4971 20.6072 14.4971 20.6072 14.7514H21.8796V20.6012H20.8617V20.8555ZM16.0266 3.05202L15.7722 2.79769L16.0266 2.28902L16.2811 2.79769L16.0266 3.05202C16.2811 3.30636 16.2811 4.57803 17.0445 5.08671C17.0445 5.08671 16.7901 5.08671 16.2811 5.08671C16.2811 5.08671 16.2811 5.34104 16.0266 5.84971C15.7722 5.34104 15.7722 5.08671 15.7722 5.08671C15.5177 5.08671 15.0087 5.08671 15.0087 5.08671C16.0266 4.83237 16.0266 3.30636 16.0266 3.05202ZM16.0266 10.4277L15.7722 10.1734L16.0266 9.66474L16.2811 10.1734L16.0266 10.4277C16.2811 10.6821 16.2811 11.9538 17.0445 12.4624C17.0445 12.4624 16.7901 12.4624 16.2811 12.4624C16.2811 12.4624 16.2811 12.7168 16.0266 13.2254C15.7722 12.7168 15.7722 12.4624 15.7722 12.4624C15.5177 12.4624 15.0087 12.4624 15.0087 12.4624C16.0266 12.2081 16.0266 10.6821 16.0266 10.4277ZM18.0625 6.86705L17.808 6.61272L18.0625 6.10405L18.3169 6.61272L18.0625 6.86705C18.3169 7.12139 18.3169 8.39306 19.0804 8.90174C19.0804 8.90174 18.8259 8.90174 18.3169 8.90174C18.3169 8.90174 18.3169 9.15607 18.0625 9.66474C17.808 9.15607 17.808 8.90174 17.808 8.90174C17.5535 8.90174 17.0445 8.90174 17.0445 8.90174C18.0625 8.39306 18.0625 6.86705 18.0625 6.86705ZM20.0983 10.4277L19.8438 10.1734L20.0983 9.66474L20.3528 10.1734L20.0983 10.4277C20.3528 10.6821 20.3528 11.9538 21.1162 12.4624C21.1162 12.4624 20.8617 12.4624 20.3528 12.4624C20.3528 12.4624 20.3528 12.7168 20.0983 13.2254C19.8438 12.7168 19.8438 12.4624 19.8438 12.4624C19.5893 12.4624 19.0804 12.4624 19.0804 12.4624C20.0983 12.2081 20.0983 10.6821 20.0983 10.4277ZM20.3528 5.34104C20.3528 5.34104 20.3528 5.59538 20.0983 6.10405C19.8438 5.59538 19.8438 5.34104 19.8438 5.34104C19.5893 5.34104 19.0804 5.34104 19.0804 5.34104C19.8438 4.83237 19.8438 3.30636 19.8438 3.30636L19.5893 3.05202L19.8438 2.54335L20.0983 3.05202C20.0983 3.30636 20.0983 4.57803 20.8617 5.08671C21.1162 5.34104 20.8617 5.34104 20.3528 5.34104ZM12.2094 15.5145L11.955 15.2601L12.2094 14.7514L12.4639 15.2601L12.2094 15.5145C12.4639 15.7688 12.4639 17.0405 13.2274 17.5491C13.2274 17.5491 12.9729 17.5491 12.4639 17.5491C12.4639 17.5491 12.4639 17.8035 12.2094 18.3121C11.955 17.8035 11.955 17.5491 11.955 17.5491C11.7005 17.5491 11.1915 17.5491 11.1915 17.5491C12.2094 17.2948 12.2094 15.7688 12.2094 15.5145ZM9.91913 18.0578L9.66466 17.8035L9.91913 17.2948L10.1736 17.8035L9.91913 18.0578C10.1736 18.3121 10.1736 19.5838 10.9371 20.0925C10.9371 20.0925 10.6826 20.0925 10.1736 20.0925C10.1736 20.0925 10.1736 20.3468 9.91913 20.8555C9.66465 20.3468 9.66466 20.0925 9.66466 20.0925C9.41018 20.0925 8.90121 20.0925 8.90121 20.0925C9.91913 19.5838 9.91913 18.3121 9.91913 18.0578ZM7.88329 15.5145L7.37434 15.2601L7.62882 14.7514L7.88329 15.2601V15.5145C8.13777 15.7688 8.13777 17.0405 8.90121 17.5491C8.90121 17.5491 8.64674 17.5491 8.13779 17.5491C8.13779 17.5491 8.13777 17.8035 7.88329 18.3121C7.62881 17.8035 7.62882 17.5491 7.62882 17.5491C7.37434 17.5491 6.86539 17.5491 6.86539 17.5491C7.88331 17.2948 7.88329 15.7688 7.88329 15.5145ZM5.593 18.0578L5.3385 17.8035L5.593 17.2948L5.84747 17.8035L5.593 18.0578C5.84748 18.3121 5.84746 19.5838 6.6109 20.0925C6.6109 20.0925 6.35643 20.0925 5.84747 20.0925C5.84747 20.0925 5.84748 20.3468 5.593 20.8555C5.33852 20.3468 5.3385 20.0925 5.3385 20.0925C5.08402 20.0925 4.57508 20.0925 4.57508 20.0925C5.59299 19.5838 5.593 18.3121 5.593 18.0578ZM3.30268 15.5145L3.04821 15.2601L3.30268 14.7514L3.55716 15.2601L3.30268 15.5145C3.55716 15.7688 3.55717 17.0405 4.3206 17.5491C4.3206 17.5491 4.06612 17.5491 3.55716 17.5491C3.55716 17.5491 3.55716 17.8035 3.30268 18.3121C3.0482 17.8035 3.04821 17.5491 3.04821 17.5491C2.79373 17.5491 2.28476 17.5491 2.28476 17.5491C3.55716 17.2948 3.30268 15.7688 3.30268 15.5145ZM8.90121 35.6069C6.10194 34.0809 1.26685 31.2832 1.01237 21.6185H14.2453V38.4046C11.955 37.133 9.15569 35.8613 8.90121 35.6069ZM27.2237 35.6069C26.9692 35.8613 24.1699 37.133 21.6252 38.4046V21.6185H34.8581C34.8581 31.2832 30.023 34.0809 27.2237 35.6069ZM23.9155 15.5145L23.661 15.2601L23.9155 14.7514L24.1699 15.2601L23.9155 15.5145C24.17 15.7688 24.17 17.0405 24.9334 17.5491C24.9334 17.5491 24.6789 17.5491 24.1699 17.5491C24.1699 17.5491 24.17 17.8035 23.9155 18.3121C23.661 17.8035 23.661 17.5491 23.661 17.5491C23.4065 17.5491 22.8976 17.5491 22.8976 17.5491C23.9155 17.2948 23.9155 15.7688 23.9155 15.5145ZM26.2058 18.0578L25.9513 17.8035L26.2058 17.2948L26.4603 17.8035L26.2058 18.0578C26.4603 18.3121 26.4603 19.5838 27.2237 20.0925C27.2237 20.0925 26.9692 20.0925 26.4603 20.0925C26.4603 20.0925 26.4603 20.3468 26.2058 20.8555C25.9513 20.3468 25.9513 20.0925 25.9513 20.0925C25.6968 20.0925 25.1879 20.0925 25.1879 20.0925C26.2058 19.5838 26.2058 18.3121 26.2058 18.0578ZM28.2416 15.5145L27.9872 15.2601L28.2416 14.7514L28.4961 15.2601L28.2416 15.5145C28.4961 15.7688 28.4961 17.0405 29.2595 17.5491C29.2595 17.5491 29.0051 17.5491 28.4961 17.5491C28.4961 17.5491 28.4961 17.8035 28.2416 18.3121C27.9871 17.8035 27.9872 17.5491 27.9872 17.5491C27.7327 17.5491 27.2237 17.5491 27.2237 17.5491C28.2416 17.2948 28.2416 15.7688 28.2416 15.5145ZM30.5319 18.0578L30.2774 17.8035L30.5319 17.2948L30.7864 17.8035L30.5319 18.0578C30.7864 18.3121 30.7864 19.5838 31.5498 20.0925C31.5498 20.0925 31.2954 20.0925 30.7864 20.0925C30.7864 20.0925 30.7864 20.3468 30.5319 20.8555C30.2775 20.6012 30.2774 20.0925 30.2774 20.0925C30.023 20.0925 29.514 20.0925 29.514 20.0925C30.5319 19.5838 30.5319 18.3121 30.5319 18.0578ZM32.5677 15.5145L32.3133 15.2601L32.5677 14.7514L32.8222 15.2601L32.5677 15.5145C32.8222 15.7688 32.8222 17.0405 33.5857 17.5491C33.5857 17.5491 33.3312 17.5491 32.8222 17.5491C32.8222 17.5491 32.8222 17.8035 32.5677 18.3121C32.3133 17.8035 32.3133 17.5491 32.3133 17.5491C32.0588 17.5491 31.5498 17.5491 31.5498 17.5491C32.5678 17.2948 32.5677 15.7688 32.5677 15.5145ZM35.1125 14.2428H21.8796V0.763006H35.1125V14.2428Z" fill="white"/>
<path d="M12.9729 6.35831C12.9729 6.10397 12.7184 5.5953 12.464 5.34097C12.464 5.08663 12.2095 5.08663 12.2095 5.08663V5.34097C12.2095 5.34097 12.2095 5.34097 11.955 5.08663C11.7005 4.57796 11.446 4.32363 10.9371 4.32363C10.9371 4.32363 10.9371 4.32363 10.9371 4.57796V4.8323H10.6826L10.4281 4.57796L10.1736 4.32363C10.1736 4.06929 9.91916 4.06929 9.66468 3.81496C9.41021 3.81496 9.41021 3.81496 9.41021 3.56062C9.41021 3.56062 9.41019 3.56062 9.15572 3.56062C9.15572 3.81496 9.15572 3.81496 9.15572 3.81496C9.15572 3.81496 8.90124 3.56062 8.64677 3.30629C8.39229 3.05195 8.39229 2.79761 8.39229 2.79761C8.39229 2.28894 8.64676 2.03461 9.15572 2.03461C9.41019 2.03461 9.66468 2.03461 9.91916 2.28894L10.4281 2.54328C10.6826 2.54328 10.9371 2.79761 10.9371 2.79761H11.1916C11.1916 2.79761 11.1916 2.79761 11.446 2.79761H11.1916H10.9371C10.6826 2.54328 10.4281 2.54328 10.4281 2.54328C10.1736 2.54328 10.1736 2.28894 10.1736 2.28894H9.91916C10.1736 2.28894 10.1736 2.54328 10.4281 2.54328L10.9371 2.79761C11.1916 2.79761 11.446 3.05195 11.7005 3.05195C11.955 3.05195 11.955 2.79761 11.955 2.79761C11.955 2.54328 11.955 2.54328 11.7005 2.28894V2.54328C11.7005 2.79761 11.7005 2.79761 11.446 2.79761C11.446 2.79761 11.446 2.79761 11.1916 2.79761L10.4281 2.54328C9.91915 2.28894 9.41019 2.28894 9.15572 2.28894C8.39228 2.28894 7.62885 2.79761 7.62885 3.56062C7.62885 4.57796 8.13781 5.08663 9.91916 5.5953C11.446 6.10397 11.7005 6.35831 11.7005 6.61264C11.7005 6.86698 11.446 7.12131 11.1916 7.12131H10.9371C10.9371 7.12131 10.6826 7.12131 10.1736 6.86698C9.66468 6.86698 9.4102 6.61264 8.64677 6.61264C7.62885 6.61264 6.86541 6.86698 6.35645 7.37565C6.10197 7.62999 6.10197 7.62998 6.10197 7.62998H5.8475C5.59302 7.62998 5.59302 7.62998 5.59302 7.88432C5.59302 8.13866 5.33853 8.13866 5.33853 8.13866C5.33853 8.13866 5.33853 8.13866 5.08406 8.13866C5.08406 8.13866 4.82958 8.13866 4.82958 7.88432C4.82958 7.62998 4.5751 7.62998 4.5751 7.62998L4.32063 7.37565C4.32063 7.12131 4.5751 7.12131 4.5751 7.12131C4.5751 6.86698 4.5751 6.86698 4.5751 6.86698C4.5751 6.86698 4.5751 6.86698 4.5751 7.12131V7.37565V7.62998C4.5751 7.62998 4.82958 7.37565 4.82958 7.12131C4.82958 6.86698 4.82958 6.86698 4.82958 6.86698C4.82958 6.86698 4.82958 6.86698 4.82958 7.12131C4.82958 7.12131 4.82958 7.12131 5.08406 7.37565C5.08406 7.37565 5.08405 7.37565 5.33853 7.37565C5.33853 7.37565 5.33855 7.37565 5.59302 7.12131V6.86698H5.8475H6.10197C6.10197 6.86698 6.10197 6.86698 6.10197 6.61264V6.35831C6.10197 6.10397 5.8475 6.10397 5.8475 6.10397H5.59302C5.59302 6.10397 5.59302 5.84964 5.8475 5.5953C5.8475 5.34097 6.10197 5.08663 6.10197 4.8323C6.10197 4.32363 6.10197 3.81496 6.35645 3.81496C6.35645 3.81496 6.35645 3.81496 6.35645 4.06929V4.32363V4.57796L6.61093 4.32363V4.06929L6.35645 3.56062H6.10197V2.54328V2.28894C5.8475 2.54328 5.8475 2.54328 5.59302 2.54328L5.33853 2.79761C5.33853 2.79761 5.33853 2.79761 5.33853 2.54328C5.33853 2.28894 5.08406 2.03461 4.82958 1.78027L4.5751 2.03461C4.5751 2.03461 4.5751 2.03461 4.5751 2.28894C4.5751 2.28894 4.5751 2.28894 4.5751 2.54328V2.28894H4.32063V2.54328V2.79761V3.05195V3.30629C4.32063 3.30629 4.32061 3.30629 4.06614 3.30629C4.06614 3.30629 4.06614 3.30629 3.81166 3.30629C3.55718 3.30629 3.55719 3.30629 3.55719 3.56062C3.55719 3.81496 3.55718 4.06929 3.81166 4.06929L4.06614 4.32363V4.06929V3.81496C4.06614 3.81496 4.06615 3.81496 4.32063 4.06929V4.57796V5.08663C4.32063 5.34097 4.32063 5.34097 4.5751 5.5953C4.5751 5.84964 4.82958 5.84964 4.82958 6.10397C4.82958 6.35831 5.08406 6.35831 5.08406 6.35831C5.08406 6.35831 5.08406 6.35831 4.82958 6.35831C4.5751 6.35831 4.5751 6.61264 4.5751 7.37565C4.5751 7.88432 4.5751 8.39299 4.82958 8.64733L5.08406 9.156V9.41033C5.08406 10.1733 4.06614 11.445 2.79374 12.208C2.28478 12.4624 2.28479 12.7167 2.28479 13.2254V13.4797C2.53927 13.4797 2.53926 13.4797 2.79374 13.2254C3.04822 13.2254 3.30271 12.971 3.30271 12.971V12.7167C3.30271 12.7167 3.30271 12.7167 3.55719 12.4624C3.55719 12.4624 3.81166 12.4624 3.81166 12.208C3.81166 12.208 3.81166 11.9537 4.06614 11.9537V12.208C4.06614 12.4624 4.32063 12.7167 4.32063 12.7167C4.32063 12.4624 4.32063 12.4624 4.5751 12.208L4.82958 11.9537C4.82958 11.9537 4.82958 11.6993 4.82958 11.445V11.1907V11.445C4.82958 11.445 5.08405 11.1907 5.33853 10.9363V10.682V10.4277V10.1733V10.4277C5.33853 10.4277 5.33855 10.682 5.59302 10.682L5.8475 10.4277C5.8475 10.1733 5.8475 10.1733 5.8475 9.919C5.8475 9.66467 5.8475 9.66467 5.8475 9.66467V9.919L6.10197 9.66467C6.10197 9.66467 6.10197 9.66467 6.10197 9.41033C6.10197 9.41033 6.10197 9.41033 6.10197 9.156C6.10197 8.90166 6.10197 8.90166 6.10197 8.64733C6.10197 8.64733 6.10197 8.39299 6.35645 8.39299C6.61093 8.13866 6.61093 8.13866 6.61093 8.13866C6.61093 8.13866 6.61093 8.13866 6.61093 8.39299C6.61093 8.39299 6.61094 8.39299 6.86542 8.39299H7.11989L7.37437 8.13866H7.62885H7.88332C8.1378 8.13866 8.13781 8.13866 8.13781 8.13866C8.13781 8.13866 8.39229 8.13866 8.39229 7.88432C8.39229 7.88432 8.39229 7.62998 8.13781 7.62998C8.13781 7.62998 8.39229 7.88432 8.64677 8.13866C9.66468 9.66467 9.91917 9.919 10.6826 10.1733C11.446 10.4277 11.446 10.4277 11.446 10.9363C11.446 11.1907 11.446 11.445 11.1916 11.6993C10.6826 12.4624 10.6826 12.7167 10.6826 13.2254H10.9371H11.1916C11.1916 13.2254 11.446 13.2254 11.446 12.971V12.7167V12.4624L11.7005 12.971C11.7005 13.2254 11.955 13.2254 12.2095 13.2254C12.2095 12.971 12.2095 12.971 12.2095 12.971V12.7167V12.4624C12.2095 12.208 12.2095 12.208 12.2095 12.208L12.464 11.1907V10.9363C12.464 10.9363 12.4639 10.9363 12.7184 10.9363C12.7184 10.9363 12.7184 10.9363 12.7184 10.682C12.7184 10.4277 12.7184 10.4277 12.7184 10.1733L12.464 9.919H12.2095H12.464V9.66467V9.41033H12.2095C11.955 9.41033 11.446 9.156 11.446 8.64733L11.1916 7.62998C11.1916 7.37565 10.9371 7.12131 10.6826 6.86698H10.4281H10.1736C10.1736 6.86698 10.1736 6.86698 10.4281 6.86698H10.6826C10.9371 6.86698 10.9371 6.86698 11.1916 7.12131C11.446 7.12131 11.7005 7.37565 11.955 7.37565C12.7184 7.12131 12.9729 6.86698 12.9729 6.35831ZM6.61093 3.30629C6.8654 3.30629 6.86542 3.30629 7.11989 3.05195C7.11989 3.30629 6.86542 3.56062 6.86542 3.81496C6.86542 4.06929 6.61093 4.06929 6.61093 4.06929C6.61093 4.06929 6.61093 4.06929 6.61093 3.81496V3.56062V3.30629C6.35645 3.30629 6.35645 3.30629 6.61093 3.30629ZM5.33853 3.05195L5.8475 3.30629H6.10197V3.56062C6.10197 3.81496 5.8475 3.81496 5.8475 3.81496L5.59302 3.56062C5.33855 3.56062 5.33853 3.30629 5.33853 3.05195ZM5.59302 4.8323C5.59302 4.57796 5.33853 4.32363 5.33853 4.32363C5.33853 4.32363 5.33855 4.06929 5.59302 4.06929C5.59302 4.06929 5.59302 4.06929 5.8475 4.06929H6.10197H6.35645H6.61093H6.86542C6.86542 4.06929 7.11989 4.06929 7.11989 4.32363C7.11989 4.57796 7.1199 4.57796 6.86542 5.08663C6.86542 5.34097 6.8654 5.5953 6.61093 5.5953C6.35645 5.5953 6.35645 5.34097 6.10197 5.08663L5.59302 4.8323Z" fill="white"/>
<path d="M3.55722 5.34107L3.81171 5.08674V4.8324V4.57807C3.81171 4.57807 3.81171 4.32373 3.55722 4.32373C3.55722 4.32373 3.55722 4.32373 3.30273 4.57807V4.8324C3.30273 5.08674 3.30273 5.08674 3.30273 5.08674C3.55722 5.08674 3.55722 5.34107 3.55722 5.34107Z" fill="white"/>
<path d="M5.08402 7.8845V7.37583V7.12149C4.82954 7.37583 4.82955 7.37583 4.57507 7.37583C4.06611 7.37583 3.55715 6.35849 3.55715 4.83247C3.55715 4.83247 3.55715 4.57814 3.55715 4.3238C3.55715 4.06947 3.55715 3.81513 3.55715 3.81513C3.55715 3.30646 3.55715 2.79779 3.04819 2.54346H2.7937C2.7937 2.79779 2.7937 2.79779 2.53922 3.30646V3.5608V3.81513H2.7937V4.06947V4.3238V4.57814V4.83247C2.7937 4.83247 2.7937 4.83247 2.53922 4.57814C2.53922 4.3238 2.28475 4.3238 2.28475 4.3238H2.03027C2.03027 4.3238 2.03027 4.3238 2.03027 4.57814L2.28475 4.83247C2.28475 5.08681 2.53922 5.08681 2.53922 5.08681C2.53922 5.08681 2.53922 5.08681 2.7937 5.34114C2.7937 5.34114 2.79372 5.34114 3.04819 5.34114H2.7937C2.7937 5.59548 3.04819 6.10415 3.55715 6.35849C3.55715 6.35849 3.55715 6.35849 3.30267 6.35849C3.30267 6.35849 3.30267 6.61282 3.55715 6.86716C3.55715 7.12149 3.81162 7.12149 4.0661 7.12149L4.57507 7.37583H4.32059C4.32059 7.37583 4.32059 7.63016 4.57507 7.63016C4.57507 7.8845 4.82954 7.8845 4.82954 7.8845V7.63016C4.82954 7.63016 4.82954 7.63016 5.08402 7.37583H5.33849H5.59299C5.08403 8.13883 5.08402 8.13883 5.08402 7.8845Z" fill="white"/>
<path d="M3.04822 10.9362C3.3027 11.1906 3.3027 11.1906 3.04822 10.9362C3.55718 10.9362 3.55717 10.9362 4.06613 10.6819C3.81165 10.6819 3.81165 10.6819 3.81165 10.6819C3.81165 10.6819 3.81166 10.6819 3.55718 10.6819C3.30269 10.6819 3.3027 10.6819 3.04822 10.6819C2.79374 10.6819 2.79373 10.6819 2.53925 10.9362H3.04822Z" fill="white"/>
<path d="M9.66465 9.41035V9.15601C9.66465 9.15601 9.66465 9.15601 9.66465 8.90168V8.64734C9.66465 8.39301 9.41018 8.39301 9.41018 8.39301C9.41018 8.13867 9.41016 8.13867 9.15569 8.13867L8.90121 8.39301H8.64674C8.64674 8.39301 8.39226 8.64734 8.39226 8.90168C8.39226 9.15601 8.39225 9.15601 8.90121 9.91902C9.15569 10.1734 9.15569 10.4277 9.15569 10.682C9.15569 11.1907 8.64673 11.445 7.88329 11.6994H7.37434C6.86539 11.6994 6.86538 11.9537 6.6109 12.4624C6.86538 12.4624 6.86539 12.4624 7.11987 12.4624H7.37434C7.62882 12.4624 7.62882 12.4624 7.62882 12.208C7.62882 11.9537 7.88329 11.9537 7.88329 11.9537H8.13779H8.39226C8.39226 11.9537 8.39226 11.9537 8.39226 12.208C8.13778 12.4624 8.13779 12.4624 8.13779 12.7167V12.971C8.13779 12.7167 8.13778 12.7167 8.39226 12.7167C8.64674 12.4624 8.90121 12.208 8.90121 12.208V11.6994C8.90121 11.445 8.90121 11.445 8.90121 11.445V11.6994C8.90121 11.6994 8.90121 11.6994 9.15569 11.445V11.1907V10.9364C9.15569 10.9364 9.15569 10.9364 9.15569 10.682C9.15569 10.682 9.15569 10.682 9.15569 10.4277V10.1734V9.91902L9.91913 10.1734C9.66465 10.1734 9.66465 9.66468 9.66465 9.41035Z" fill="white"/>
<path d="M7.37434 11.4451C7.62883 11.6994 7.62882 11.6994 7.88331 11.6994C8.1378 11.6994 8.13782 11.6994 8.13782 11.6994H7.88331C7.62882 11.6994 7.62883 11.6994 7.37434 11.9538C7.11985 11.1907 7.37434 11.1907 7.37434 11.4451Z" fill="white"/>
<path d="M11.446 11.1907C10.937 11.1907 10.6826 11.1907 10.6826 11.6993C11.1915 11.6993 11.446 11.445 11.446 11.1907Z" fill="white"/>
<path d="M6.10196 5.34095C6.10196 5.59528 6.10196 5.59528 6.10196 5.34095C6.35645 5.59528 6.35645 5.34095 6.35645 5.34095V5.08661C6.35645 4.83228 6.35645 4.83228 6.35645 4.83228H6.10196H5.84747L6.10196 5.34095Z" fill="white"/>
<path d="M26.2058 4.06948V4.57815C26.2058 4.83248 26.2058 4.83248 26.4602 5.08682C26.4602 5.34115 26.7147 5.34115 26.7147 5.59549C26.7147 5.84982 26.9692 5.84982 26.9692 5.84982C26.9692 5.84982 26.9692 5.84982 26.7147 5.84982C26.4602 5.84982 26.4602 6.10416 26.4602 6.86716C26.4602 7.37583 26.4602 7.8845 26.7147 8.13884L26.9692 8.64751V8.90185C26.9692 9.66485 25.9513 10.9365 24.6789 11.6995C24.1699 11.9539 24.1699 12.2082 24.1699 12.7169C24.4244 12.7169 24.4244 12.7169 24.6789 12.4625C24.9334 12.4625 25.1878 12.2082 25.1878 12.2082V11.9539C25.1878 11.9539 25.1878 11.9539 25.4423 11.6995C25.4423 11.6995 25.6968 11.6995 25.6968 11.4452C25.6968 11.4452 25.6968 11.1909 25.9513 11.1909V11.4452C25.9513 11.6995 26.2058 11.9539 26.2058 11.9539C26.2058 11.9539 26.2058 11.9539 26.2058 11.6995C26.2058 11.4452 26.2058 11.4452 26.2058 11.4452L26.4602 11.1909C26.4602 11.1909 26.4602 10.9365 26.4602 10.6822V10.4279V10.6822C26.4602 10.6822 26.7147 10.4279 26.9692 10.1735V9.91919V9.66485V9.91919C26.9692 9.91919 26.9692 10.1735 27.2237 10.1735C27.4782 10.1735 27.4782 9.91919 27.4782 9.41052C27.4782 9.15618 27.4782 9.15618 27.4782 9.15618V9.41052C27.4782 9.41052 27.4781 9.41052 27.7326 9.15618C27.7326 9.15618 27.7326 9.15618 27.7326 8.90185C27.7326 8.90185 27.7326 8.90185 27.7326 8.64751V8.39318C27.7326 8.13884 27.7326 8.13884 27.9871 7.63017C28.2416 7.37583 28.2416 7.37583 28.2416 7.37583C28.2416 7.37583 28.2416 7.37583 28.2416 7.63017C28.2416 7.63017 28.2416 7.63017 28.4961 7.63017H28.7505C29.005 7.63017 29.005 7.63017 29.2595 7.37583H29.514H29.7685C30.0229 7.37583 30.0229 7.37583 30.0229 7.37583C30.0229 7.37583 30.2774 7.37583 30.2774 7.1215V6.86716V6.61283C30.2774 6.61283 30.5319 6.86716 30.7864 7.1215C31.5498 8.64751 32.0588 8.90185 32.8222 9.15618C33.5856 9.41052 33.5856 9.41052 33.5856 9.91919C33.5856 10.1735 33.5856 10.4279 33.3312 10.6822C32.8222 11.1909 32.8222 11.6995 32.8222 12.2082H33.0767H33.3312C33.3312 12.2082 33.5856 12.2082 33.5856 11.9539V11.6995C33.5856 11.4452 33.5856 11.4452 33.8401 11.4452L34.0946 11.9539C34.0946 12.2082 34.3491 12.2082 34.6035 12.2082V11.9539V11.6995C34.6035 11.4452 34.6035 11.4452 34.6035 11.1909V10.9365L34.3491 10.6822V10.4279C34.3491 10.4279 34.3491 10.4279 34.3491 10.1735C34.3491 9.91919 34.3491 9.66485 34.0946 9.66485H33.8401C33.8401 9.66485 33.8401 9.66485 34.0946 9.66485V9.41052C34.0946 9.15618 34.0946 9.15618 33.8401 9.15618H33.5856C33.3312 9.15618 32.8222 8.90185 32.8222 8.39318L32.3133 7.63017C32.3133 7.37583 32.0588 7.1215 31.8043 6.86716H31.5498H31.2953C31.5498 6.86716 31.8043 6.86716 32.3133 7.1215C32.5677 7.1215 32.8222 7.37583 33.0767 7.37583C33.5857 7.37583 34.0946 7.1215 34.0946 6.61283C34.0946 6.35849 34.0946 6.10416 33.8401 5.84982C33.8401 5.59549 33.5856 5.59549 33.3312 5.34115V5.59549C33.3312 5.59549 33.0767 5.59549 33.0767 5.34115C32.8222 4.83248 32.5677 4.57815 32.3133 4.57815C32.3133 4.57815 32.3133 4.57815 32.3133 4.83248C32.3133 4.83248 32.3133 4.83248 32.3133 5.08682H32.0588L31.8043 4.83248L31.5498 4.57815C31.5498 4.32381 31.2953 4.32381 31.0409 4.06948L30.7864 3.81514C30.7864 3.81514 30.7864 3.81514 30.5319 3.81514C30.5319 3.81514 30.5319 3.81514 30.5319 4.06948V4.32381C30.5319 4.32381 30.2774 4.06948 30.0229 3.81514C29.7684 3.56081 29.7685 3.30647 29.7685 3.30647C29.7685 2.7978 30.023 2.54346 30.5319 2.54346C30.7864 2.54346 31.0408 2.54346 31.2953 2.7978L31.8043 3.05213C32.0588 3.05213 32.3133 3.30647 32.3133 3.30647C32.3133 3.30647 32.3132 3.30647 32.5677 3.30647C32.5677 3.30647 32.5677 3.30647 32.8222 3.30647C32.5677 3.30647 32.0588 3.05213 31.8043 2.7978C31.5498 2.7978 31.5498 2.54346 31.5498 2.54346H31.2953L31.8043 2.7978L32.8222 2.54346C33.0767 2.54346 33.3312 2.7978 33.5856 2.7978C33.8401 2.7978 33.8401 2.54346 33.8401 2.54346V2.28913C33.8401 2.03479 33.5856 2.03479 33.5856 2.03479V2.28913C33.5856 2.54346 33.5856 2.54346 33.3312 2.54346C33.3312 2.54346 33.3312 2.54346 33.0767 2.54346L32.3133 2.28913C31.5498 2.03479 31.5498 2.03479 31.0409 2.03479C30.2774 2.03479 29.514 2.54346 29.514 3.30647C29.514 4.32381 30.023 4.83248 31.8043 5.34115C33.3312 5.84982 33.5856 6.10416 33.5856 6.35849C33.5856 6.61283 33.3312 6.86716 33.0767 6.86716H32.8222C32.8222 6.86716 32.5677 6.86716 32.0588 6.61283C31.5498 6.61283 31.2953 6.35849 30.5319 6.35849C29.514 6.35849 28.7505 6.61283 28.2416 7.1215C27.9871 7.1215 27.9871 7.37583 27.9871 7.37583H27.7326C27.4781 7.37583 27.4782 7.37583 27.4782 7.63017H27.2237C27.2237 7.63017 27.2237 7.63017 26.9692 7.63017C26.9692 7.63017 26.7147 7.63017 26.7147 7.37583C26.7147 7.1215 26.4602 7.1215 26.4602 7.1215L26.2058 6.86716C26.2058 6.86716 26.2058 6.86716 26.2058 6.61283C26.2058 6.61283 26.2058 6.61283 26.2058 6.35849C26.2058 6.35849 26.2058 6.35849 26.2058 6.61283V6.86716V7.1215C26.2058 7.1215 26.4602 6.86716 26.4602 6.61283C26.4602 6.35849 26.4602 6.35849 26.4602 6.35849C26.4602 6.35849 26.4602 6.35849 26.7147 6.61283C26.7147 6.61283 26.7147 6.61283 26.9692 6.86716C26.9692 6.86716 26.9692 6.86716 27.2237 6.86716C27.2237 6.86716 27.2237 6.86716 27.4782 6.61283V6.35849H27.7326H27.9871C27.9871 6.35849 27.9871 6.35849 27.9871 6.10416C27.9871 6.10416 27.9871 6.10416 27.9871 5.84982C27.9871 5.59549 27.7326 5.59549 27.7326 5.59549H27.4782C27.4782 5.59549 27.4781 5.34115 27.7326 5.08682C27.7326 5.08682 27.9871 4.57815 27.9871 4.32381V3.81514C27.9871 3.56081 27.9871 3.30647 28.2416 3.30647V3.56081V3.81514C28.2416 4.06948 28.2416 4.06948 28.2416 4.06948C28.2416 4.06948 28.2416 4.06948 28.4961 3.81514V3.56081V3.30647C28.4961 3.05213 28.4961 3.05213 27.9871 2.7978V2.54346V2.28913C27.7326 2.54346 27.7326 2.54346 27.7326 2.54346V2.28913C27.7326 2.03479 27.4782 1.78046 27.2237 1.52612L26.9692 1.78046V2.03479V1.78046H26.7147C26.7147 2.03479 26.7147 2.03479 26.7147 2.28913V2.54346C26.7147 2.54346 26.7147 2.54346 26.4602 2.54346C26.4602 2.54346 26.4602 2.54346 26.2058 2.54346C25.9513 2.54346 25.9513 2.7978 25.9513 2.7978C25.9513 3.05213 25.9513 3.05213 26.2058 3.30647C26.2058 3.56081 26.4602 3.56081 26.4602 3.56081C26.4602 3.56081 26.4602 3.56081 26.4602 3.30647V3.05213C26.4602 3.05213 26.4602 3.05213 26.7147 3.30647L26.2058 4.06948ZM27.7326 3.30647C27.9871 3.30647 27.9871 3.05213 27.9871 3.05213C27.9871 3.30647 27.7326 3.30647 27.7326 3.81514C27.7326 4.06948 27.4782 4.06948 27.4782 4.06948C27.4782 4.06948 27.4782 4.06948 27.4782 3.81514V3.56081L27.7326 3.30647C27.4781 3.30647 27.4781 3.30647 27.7326 3.30647ZM27.2237 4.32381H27.4782H27.7326C27.7326 4.32381 27.9871 4.32381 27.9871 4.57815L27.7326 4.83248V5.34115C27.7326 5.59549 27.4782 5.59549 27.4782 5.59549C27.2237 5.59549 27.2237 5.34115 26.9692 5.08682C26.9692 4.83248 26.9692 4.83248 26.7147 4.83248C26.7147 4.57815 26.4602 4.32381 26.4602 4.32381C26.4602 4.32381 26.4602 4.06948 26.7147 4.06948C26.7147 4.06948 26.7147 4.06948 26.9692 4.06948C26.9692 4.32381 26.9692 4.32381 27.2237 4.32381ZM26.4602 3.05213L26.9692 3.30647H27.2237C27.2237 3.30647 27.2237 3.30647 27.2237 3.56081V3.81514V4.06948C27.2237 4.06948 26.9692 4.06948 26.9692 3.81514L26.7147 3.56081C26.7147 3.56081 26.7147 3.30647 26.4602 3.30647V3.05213Z" fill="white"/>
<path d="M24.6789 5.34107L24.9334 5.08674V4.8324C24.9334 4.8324 24.9334 4.8324 24.9334 4.57807C24.9334 4.57807 24.9334 4.32373 24.6789 4.32373C24.6789 4.32373 24.4244 4.32373 24.4244 4.8324V5.08674C24.6789 5.08674 24.6789 5.34107 24.6789 5.34107Z" fill="white"/>
<path d="M23.9154 5.59536C23.9154 5.59536 23.661 5.59536 23.9154 5.59536C23.661 5.8497 23.661 5.8497 23.661 5.8497C23.661 6.10403 23.9154 6.6127 24.4244 6.86704C24.4244 6.86704 24.4244 6.86704 24.1699 6.86704C24.1699 6.86704 24.1699 6.86704 24.1699 7.12137C24.1699 7.12137 24.1699 7.37571 24.4244 7.63004C24.4244 7.88438 24.6789 7.88438 24.6789 7.88438L25.1878 8.13872H24.9334C24.9334 8.13872 24.9334 8.39305 25.1878 8.39305C25.1878 8.64739 25.4423 8.64739 25.4423 8.64739V8.39305C25.4423 8.39305 25.4423 8.39305 25.6968 8.13872H25.9513C26.2058 8.13872 26.2057 8.13871 26.2057 7.88438C26.2057 7.88438 26.2057 7.88438 26.2057 7.63004V7.37571V7.12137V6.86704C25.9513 7.12137 25.9513 7.12137 25.6968 7.12137C25.1878 7.12137 24.6789 6.10403 24.6789 4.57802V4.06935V3.56068V3.30634C24.6789 2.79767 24.4244 2.289 24.1699 2.03467L23.9154 2.54334C23.9154 2.54334 23.9154 2.79767 23.9154 3.05201C23.9154 3.30634 23.9154 3.30634 23.9154 3.30634V3.56068C23.9154 3.81501 23.9154 3.81501 24.1699 3.81501V4.06935V4.32369V4.57802V4.83236C24.1699 4.83236 24.1699 4.83236 23.9154 4.57802C23.9154 4.32369 23.661 4.32369 23.661 4.32369H23.4065C23.4065 4.57802 23.661 4.57802 23.661 4.83236C23.4065 5.34103 23.661 5.34103 23.9154 5.59536Z" fill="white"/>
<path d="M24.17 10.9366C24.4244 11.191 24.4244 11.191 24.17 10.9366C24.6789 10.9366 24.6789 10.9366 25.1879 10.6823C24.9334 10.6823 24.9334 10.6823 24.6789 10.428C24.4244 10.428 24.4244 10.428 24.17 10.428C23.9155 10.428 23.9155 10.428 23.661 10.6823L24.17 10.9366Z" fill="white"/>
<path d="M30.7864 9.41035V9.15601C30.7864 9.15601 30.7864 9.15601 30.7864 8.90168V8.64734C30.7864 8.64734 30.7865 8.39301 30.532 8.39301C30.532 8.13867 30.532 8.13867 30.2775 8.13867C30.2775 8.13867 30.2775 8.13867 30.023 8.13867L29.7685 8.39301H29.514C29.514 8.39301 29.2596 8.64734 29.2596 8.90168C29.2596 9.15601 29.2596 9.15601 29.7685 9.91902C30.2775 10.1734 30.2775 10.4277 30.2775 10.682C30.2775 11.1907 29.7685 11.445 29.0051 11.6994C27.9871 11.9537 27.9871 11.9537 27.7327 12.7167C27.9871 12.7167 27.9871 12.7167 28.2416 12.7167H28.4961C28.7506 12.7167 28.7506 12.7167 28.7506 12.4624C28.7506 12.208 29.0051 12.208 29.0051 12.208H29.2596H29.514C29.514 12.208 29.514 12.208 29.514 12.4624C29.514 12.7167 29.2596 12.7167 29.2596 12.7167C29.2596 12.971 29.2596 12.971 29.2596 12.971C29.2596 12.7167 29.2595 12.7167 29.514 12.7167C29.7685 12.4624 30.023 12.208 30.023 12.208V11.6994C30.023 11.445 30.023 11.445 30.023 11.445V11.6994C30.023 11.6994 30.2775 11.6994 30.2775 11.445V11.1907C30.2775 11.1907 30.2775 11.1907 30.2775 10.9364V10.682C30.2775 10.682 30.2775 10.682 30.532 10.682V10.4277H30.2775C30.7864 10.1734 30.7864 9.66468 30.7864 9.41035Z" fill="white"/>
<path d="M28.4961 11.4451C28.7506 11.6994 28.7505 11.6994 29.005 11.6994C29.2595 11.6994 29.2595 11.6994 29.2595 11.6994H29.005H28.7505C28.496 11.6994 28.4961 11.6994 28.2416 11.9538C28.2416 11.1907 28.2416 11.1907 28.4961 11.4451Z" fill="white"/>
<path d="M32.5677 11.4451C32.5677 11.1908 32.5677 11.1908 32.5677 11.4451C32.5677 11.1908 32.5677 11.1908 32.5677 11.4451C32.0588 11.1908 31.8043 11.4451 31.8043 11.6995H32.0588C32.3133 11.4451 32.3133 11.4451 32.5677 11.4451Z" fill="white"/>
<path d="M26.9692 4.83228V5.08661V5.34095C26.9692 5.59528 26.9693 5.59528 27.2237 5.59528C27.2237 5.59528 27.4782 5.59528 27.4782 5.34095V5.08661C27.4782 4.83228 27.4782 4.83228 27.4782 4.83228H26.9692C27.2237 4.83228 26.9692 4.83228 26.9692 4.83228Z" fill="white"/>
<path d="M12.9728 27.4681C12.9728 26.9594 12.7184 26.7051 12.4639 26.4507L12.2094 26.1964V26.4507L11.9549 26.1964C11.7005 25.942 11.446 25.6877 11.1915 25.6877H10.937C10.937 25.6877 10.937 25.6877 10.937 25.942V26.1964C10.937 26.1964 10.937 26.1964 10.6825 25.942C10.4281 25.6877 10.1736 25.4334 9.91911 25.4334V25.6877C9.91911 25.6877 9.66464 25.6877 9.41016 25.4334C8.9012 25.179 8.90119 24.6704 8.90119 24.416C8.90119 23.9074 9.15568 23.653 9.66463 23.653C9.91911 23.653 10.1736 23.653 10.4281 23.9074L10.937 24.416C11.1915 24.6704 11.446 24.6704 11.7004 24.6704H11.9549C11.7005 24.6704 11.7004 24.6704 11.446 24.416L10.937 23.9074C10.6825 23.653 10.6825 23.653 10.4281 23.653C10.1736 23.3987 10.1736 23.3987 10.1736 23.3987H10.4281C10.4281 23.3987 10.6825 23.653 10.937 23.653C11.446 24.1617 11.9549 24.1617 12.2094 24.1617C12.4639 24.1617 12.7184 23.9074 12.7184 23.653V23.3987V23.653C12.7184 23.653 12.7184 23.653 12.4639 23.653C12.2094 23.653 12.2094 23.653 11.446 23.1444C10.937 22.89 10.4281 22.6357 9.91911 22.6357C9.15567 22.6357 8.39225 23.3987 8.39225 24.1617C8.39225 25.179 9.15567 25.6877 11.1915 26.1964C11.9549 26.4507 12.4639 26.7051 12.4639 26.9594C12.4639 27.2137 12.2094 27.4681 11.7004 27.4681C11.446 27.4681 11.446 27.4681 11.446 27.4681C11.446 27.4681 10.937 27.4681 10.1736 27.2137C9.66463 26.9594 9.15567 26.9594 8.64672 26.9594C7.88329 26.9594 7.11986 27.2137 6.86538 27.7224H6.61089C6.61089 27.7224 6.35642 27.4681 6.10194 27.4681H5.84747L5.59299 27.2137C5.59299 26.9594 5.3385 26.7051 5.3385 26.4507V26.1964V26.4507C5.3385 26.7051 5.59299 26.7051 5.59299 26.7051C5.59299 26.7051 5.59299 26.7051 5.84747 26.4507C5.84747 26.4507 5.84747 26.4507 5.84747 26.1964C5.84747 25.942 5.84746 25.942 6.10194 25.942C6.10194 25.942 6.10194 25.942 6.35642 26.1964C6.35642 26.1964 6.35642 26.1964 6.35642 26.4507C6.35642 26.4507 6.35641 26.7051 6.61089 26.7051L6.86538 26.4507V26.1964C6.86538 26.1964 6.86538 26.1964 7.11986 26.4507C7.11986 26.4507 7.11985 26.4507 7.37433 26.4507C7.37433 26.4507 7.37433 26.4507 7.11986 26.1964C7.11986 26.1964 6.86538 25.9421 6.86538 25.6877V25.4334H6.61089C6.61089 25.4334 6.61091 25.179 6.86538 25.179L7.11986 24.9247C7.11986 24.6704 7.11986 24.6704 7.11986 24.6704V24.1617C7.11986 23.9074 7.11985 23.653 7.37433 23.3987C7.37433 23.3987 7.37433 23.3987 7.37433 23.653C7.37433 23.9074 7.37433 23.9074 7.37433 23.9074C7.37433 23.9074 7.37433 23.9074 7.6288 23.653V23.3987V23.1444C7.6288 22.89 7.37433 22.89 7.37433 22.89C7.37433 22.89 7.37433 22.89 7.37433 22.6357V22.3814V22.127V21.8727L7.11986 22.127H6.86538C6.86538 22.127 6.86538 22.127 6.86538 21.8727C6.86538 21.6184 6.86537 21.6183 6.61089 21.364V21.6183V21.8727V22.127C6.35641 21.8727 6.35642 21.8727 6.10194 21.8727C6.10194 22.127 6.10194 22.127 6.10194 22.127V22.3814C6.10194 22.3814 6.10195 22.3814 5.84747 22.3814C5.59299 22.3814 5.59299 22.3814 5.59299 22.6357C5.59299 22.89 5.59299 22.89 5.84747 23.1444C5.84747 23.3987 6.10194 23.3987 6.10194 23.3987C6.10194 23.3987 6.10194 23.3987 6.10194 23.1444V22.89C6.10194 22.89 6.10194 22.89 6.10194 22.6357C6.10194 22.6357 6.35642 22.89 6.35642 23.3987V23.9074C6.35642 24.1617 6.35641 24.1617 6.61089 24.416C6.61089 24.6704 6.86538 24.6704 6.86538 24.9247L7.11986 25.179C7.11986 25.179 7.11986 25.179 6.86538 25.179C6.61091 25.179 6.61089 25.4334 6.61089 25.6877C6.61089 26.1964 6.86538 26.9594 7.37433 27.2137L7.88328 27.7224C8.13776 27.9767 8.39225 28.2311 8.39225 28.4854C8.39225 28.7397 8.13776 29.2484 7.37433 29.2484L7.11986 29.5027C6.86538 29.5027 6.61089 29.7571 6.61089 30.2657C6.86537 30.2657 6.86538 30.2657 6.86538 30.2657H7.11986C7.37433 30.2657 7.37433 30.2657 7.37433 30.0114H7.6288C7.6288 30.0114 7.6288 30.2657 7.6288 30.5201C7.6288 30.7744 7.6288 31.0288 7.88328 31.0288C7.88328 31.0288 7.88328 31.0288 7.88328 30.7744C7.88328 30.7744 7.88329 30.5201 8.13777 30.5201C8.39225 30.2657 8.39225 30.0114 8.39225 29.7571V29.5027C8.39225 29.5027 8.39224 29.5027 8.64672 29.2484V28.9941C8.64672 28.9941 8.64672 28.9941 8.64672 28.7397C8.64672 28.7397 8.64672 28.7397 8.64672 28.4854C8.64672 28.4854 8.64672 28.4854 8.90119 28.4854C8.90119 28.2311 9.15567 28.2311 9.15567 28.2311C8.90119 27.9767 8.90119 27.7224 8.90119 27.7224C8.90119 27.7224 8.90119 27.7224 8.90119 27.4681V27.2137C8.90119 26.9594 8.90119 26.9594 8.90119 26.9594C8.90119 26.9594 8.90119 26.9594 8.90119 27.2137V27.4681C8.90119 27.4681 8.90119 27.4681 9.15567 27.4681C9.41014 27.2137 9.66463 27.2137 9.91911 27.2137C10.1736 27.2137 10.1736 27.2137 10.4281 27.4681C10.4281 27.4681 10.4281 27.4681 10.4281 27.2137C10.4281 27.2137 10.4281 27.2137 10.4281 26.9594C10.6825 26.9594 10.937 27.4681 11.1915 28.4854C11.446 29.2484 11.446 29.2484 12.2094 29.7571C12.7184 30.0114 12.9728 30.5201 12.9728 31.0288C12.9728 31.5374 12.7184 32.3004 12.4639 33.0634C12.4639 33.3178 12.2094 33.5721 12.2094 33.5721C12.2094 33.5721 12.2094 33.8264 12.2094 34.0808C12.2094 34.3351 12.2094 34.3351 12.2094 34.3351C12.2094 34.3351 12.2094 34.3351 12.2094 34.5894V34.3351L12.4639 34.0808C12.7184 33.8264 12.7184 33.8264 12.7184 33.5721V33.3178V33.0634V32.8091L12.9728 33.0634L13.2273 33.3178V33.0634V32.8091C13.2273 32.5548 13.2273 32.3004 12.9728 32.0461L12.7184 31.7918H12.9728V31.5374C12.9728 31.2831 12.9728 31.0288 12.7184 31.0288C12.7184 31.0288 12.7184 30.7744 12.4639 30.7744C12.4639 30.7744 12.4639 30.7744 12.7184 30.7744C12.7184 30.7744 12.7184 30.7744 12.7184 30.2657V30.0114V29.7571C12.7184 29.5027 12.7184 29.5027 12.4639 29.5027C11.9549 29.5027 11.7004 29.2484 11.446 28.2311C11.446 27.4681 11.1915 26.9594 10.6825 26.9594C10.4281 26.9594 10.4281 26.9594 10.4281 26.7051H10.6825C11.1915 26.9594 11.446 26.9594 11.9549 26.9594C12.7184 28.4854 12.9728 27.9767 12.9728 27.4681ZM6.61089 24.416C6.86537 24.416 6.86537 24.1617 6.61089 24.416C6.86537 24.1617 7.11986 24.1617 7.11986 24.1617V24.416L6.86538 24.6704L6.61089 24.9247V24.6704V24.416ZM5.3385 24.416C5.3385 24.1617 5.3385 24.1617 5.3385 24.416C5.59298 24.1617 5.59298 24.1617 5.3385 24.416C5.59298 24.1617 5.59299 24.1617 5.59299 24.416C5.84747 24.416 5.84747 24.6704 5.84747 24.6704V24.9247V25.179L5.59299 24.9247V24.6704L5.3385 24.416ZM5.84747 25.6877V25.4334C5.84747 25.179 5.84746 25.179 6.10194 25.179C6.10194 25.179 6.10194 25.179 6.35642 25.179H6.61089H6.86538H7.11986C7.11986 25.179 7.37433 25.179 7.37433 25.4334C7.37433 25.6877 7.37433 25.6877 7.11986 25.942C6.86538 26.1964 6.86538 26.4507 6.86538 26.4507C6.10195 26.4507 5.84747 26.1964 5.84747 25.6877Z" fill="white"/>
<path d="M10.1736 30.7745C10.1736 30.5202 10.1736 30.2658 10.1736 30.2658C10.1736 30.2658 10.1736 30.0115 9.91911 29.7571C9.91911 29.7571 9.91911 29.5028 9.66463 29.2485C9.66463 29.2485 9.66464 28.9941 9.41016 28.9941C9.15568 28.9941 8.90118 29.2485 8.90118 29.5028C8.90118 29.7571 8.90118 30.0115 9.15566 30.5202C9.41014 31.0288 9.41016 31.2832 9.41016 31.5375C9.41016 32.0462 9.15567 32.0462 8.64671 32.3005C7.88327 32.5548 7.62878 32.8092 7.62878 33.5722C7.62878 33.5722 7.62878 33.5722 7.88326 33.5722H8.13776C8.39224 33.5722 8.39223 33.5722 8.39223 33.3178V33.0635V33.3178V33.5722C8.39223 33.8265 8.39223 34.0808 8.64671 34.0808C8.64671 33.8265 8.6467 33.8265 8.90118 33.5722C9.15566 33.3178 9.15566 33.0635 9.15566 33.0635V32.8092C9.15566 32.5548 9.15566 32.5548 9.15566 32.5548C9.15566 32.5548 9.15568 32.5548 9.41016 32.5548C9.41016 32.5548 9.66463 32.3005 9.66463 32.0462V31.7918V31.5375C10.1736 31.5375 10.1736 31.2832 10.1736 30.7745Z" fill="white"/>
<path d="M5.08402 27.7228C5.08402 27.7228 5.08402 27.4685 5.08402 27.7228C5.08402 27.4685 5.08402 27.4685 5.08402 27.7228C4.82955 27.7228 4.57507 27.7228 4.57507 27.7228C4.06611 27.7228 3.81163 27.2141 3.55715 26.1968C3.55715 25.9425 3.55715 25.6881 3.55715 25.6881C3.55715 25.4338 3.55715 25.1795 3.55715 24.9251C3.55715 24.6708 3.55715 24.4165 3.55715 24.4165V24.1621C3.55715 23.9078 3.30266 23.3991 2.7937 23.1448V23.3991V23.6534C2.7937 23.9078 2.7937 24.1621 2.7937 24.1621C2.7937 24.4165 2.7937 24.4165 2.7937 24.4165C2.53922 24.4165 2.53923 24.1621 2.28475 24.1621C2.28475 24.1621 2.28475 24.1621 2.03027 24.1621L2.28475 24.6708L2.53923 24.9251L2.7937 25.1795H2.53923V25.4338V25.6881L2.7937 25.9425L3.0482 26.1968C3.0482 26.1968 3.0482 26.1968 3.0482 26.4511C3.0482 26.4511 3.04819 26.7055 3.30267 26.9598C3.55715 27.2141 3.55715 27.2141 3.81163 27.2141H4.0661H4.3206C4.06612 27.2141 4.0661 27.2141 4.0661 27.4685L4.3206 27.7228C4.3206 27.7228 4.32059 27.7228 4.57507 27.7228L4.82955 27.4685C5.33851 27.4685 5.3385 27.2141 5.3385 27.2141C5.3385 27.2141 5.3385 27.2141 5.3385 26.9598C5.08402 27.9771 5.08402 27.9771 5.08402 27.7228Z" fill="white"/>
<path d="M3.81165 25.9421L4.06613 25.6878C4.06613 25.6878 4.06613 25.6878 4.06613 25.4334V25.1791C4.06613 24.9247 4.06614 24.9247 3.81165 24.6704C3.81165 25.1791 3.55717 25.6878 3.81165 25.9421C3.55717 25.9421 3.55717 25.9421 3.81165 25.9421Z" fill="white"/>
<path d="M5.59299 30.52C5.59299 30.52 5.84746 30.52 6.10193 30.52L5.84746 30.2656C5.59299 30.2656 5.59297 30.2656 5.3385 30.52C5.3385 30.52 5.33852 30.52 5.59299 30.52Z" fill="white"/>
<path d="M8.13776 32.3007C8.13776 32.5551 8.13776 32.5551 8.13776 32.3007C8.39224 32.3007 8.39223 32.3007 8.39223 32.3007H8.64671H8.90118C8.90118 32.3007 8.90119 32.3007 8.64671 32.3007C8.39223 32.3007 8.39224 32.0464 8.13776 32.0464C7.88328 32.0464 7.62878 32.0464 7.62878 32.3007C7.88326 32.3007 7.88328 32.3007 8.13776 32.3007C7.88328 32.3007 8.13776 32.3007 8.13776 32.3007Z" fill="white"/>
<path d="M11.446 33.3181C11.1915 33.3181 11.1915 33.3181 11.446 33.3181L10.9371 33.5724C10.6826 33.5724 10.4281 34.0811 10.4281 34.0811V34.3355C10.4281 34.0811 10.6826 34.0811 10.9371 34.0811C11.1915 34.3355 11.446 33.8268 11.446 33.3181Z" fill="white"/>
<path d="M6.35644 26.4508C6.35644 26.4508 6.35643 26.1965 6.6109 26.1965V25.9421H6.35644C6.10197 25.9421 6.10197 26.1965 6.35644 26.4508C6.35644 26.1965 6.35644 26.4508 6.35644 26.4508Z" fill="white"/>
<path d="M24.6789 31.0288L23.9154 31.2831C23.4065 31.5374 23.152 31.7918 23.152 32.3004C23.152 32.3004 23.4065 32.3004 23.4065 32.0461H23.6609H23.9154L24.1699 31.7918L24.4244 31.5374C24.4244 31.5374 24.4244 31.5374 24.4244 31.7918V32.0461C24.4244 32.3004 24.4244 32.3004 24.6789 32.5548C24.6789 32.5548 24.6789 32.5548 24.6789 32.3004C24.6789 32.3004 24.6789 32.3004 24.9333 32.0461C25.1878 31.7918 25.1878 31.5374 25.1878 31.5374C25.1878 31.2831 25.1878 31.2831 25.1878 31.2831C25.1878 31.2831 25.4423 31.2831 25.4423 31.0288C25.4423 31.0288 25.4423 31.0288 25.4423 30.7744V30.5201V30.2657C25.6968 30.0114 25.6968 30.0114 25.6968 29.7571V29.5027V29.2484C25.6968 29.2484 25.6968 29.2484 25.9513 29.5027C25.9513 29.5027 25.9513 29.5027 26.2057 29.2484V28.9941V28.7397C26.2057 28.4854 26.2057 28.4854 26.4602 28.2311C26.4602 27.9767 26.7147 27.9767 26.7147 27.9767H26.9692H27.2237C27.7326 27.7224 27.7326 27.7224 27.9871 27.7224C28.2416 27.7224 28.2416 27.7224 28.496 27.9767C28.496 27.9767 28.496 27.9767 28.496 27.7224V27.4681C28.496 27.4681 28.496 27.7224 28.7505 27.9767C29.005 28.2311 29.2595 28.4854 29.5139 28.7397H30.0229C30.2774 28.7397 30.2774 28.7397 30.2774 28.9941C30.2774 29.2484 30.0229 29.7571 29.7684 29.7571L29.2595 30.0114C29.005 30.0114 29.005 30.2657 29.005 30.5201C29.005 30.7744 29.005 31.0288 29.005 31.0288H29.2595L29.5139 30.7744V30.5201V30.2657C29.5139 30.2657 29.514 30.0114 29.7684 30.0114C29.7684 30.0114 29.7684 30.0114 29.7684 30.2657C29.7684 30.5201 29.7684 30.5201 30.0229 30.7744V30.5201C30.0229 30.5201 30.0229 30.5201 30.0229 30.2657C30.0229 30.0114 30.2774 30.0114 30.2774 29.7571V29.5027C30.2774 29.5027 30.2774 29.5027 30.5319 29.2484V28.9941C30.5319 28.9941 30.5319 28.9941 30.7863 28.9941C30.7863 28.9941 30.7864 28.9941 31.0408 28.7397V28.4854H30.7863C30.5319 28.4854 30.2774 28.2311 30.2774 28.2311L30.0229 27.7224C30.0229 27.4681 29.7684 27.4681 29.7684 27.4681L29.5139 27.2137C29.5139 27.2137 29.7684 27.2137 30.0229 27.4681C30.2774 27.7224 30.7863 27.7224 31.2953 27.7224C31.8042 27.7224 32.3132 27.2137 32.3132 26.7051C32.3132 26.4507 32.0588 26.1964 31.8043 25.6877L31.5498 25.4334C31.5498 25.4334 31.5498 25.4334 31.5498 25.6877C31.5498 25.6877 31.2953 25.6877 31.2953 25.4334C31.2953 25.179 31.0408 24.9247 30.7863 24.9247C30.5319 24.9247 30.5319 24.6704 30.5319 24.6704C30.5319 24.6704 30.5319 24.6704 30.5319 24.9247V25.179C30.5319 25.179 30.5319 25.179 30.2774 24.9247C30.2774 24.6704 30.0229 24.6704 29.7684 24.416H29.5139C29.5139 24.416 29.2595 24.1617 29.005 24.1617C28.7505 23.9074 28.7505 23.653 28.7505 23.3987C28.7505 22.89 29.2595 22.6357 29.5139 22.6357H29.7684L30.2774 22.89L30.7863 23.1444C31.0408 23.3987 31.2953 23.3987 31.5498 23.3987H31.8043H32.0587H31.8043C31.5498 23.3987 31.2953 23.1444 31.0408 23.1444L30.5319 22.89L30.0229 22.6357C30.0229 22.6357 30.0229 22.6357 30.2774 22.6357H30.7863C30.7863 22.6357 31.0408 22.6357 31.2953 22.89C31.8042 23.1444 32.0587 23.1444 32.3132 23.1444C32.5677 23.1444 32.8222 22.89 32.8222 22.6357V22.3814C32.8222 22.3814 32.8222 22.3814 32.8222 22.127C32.8222 22.3814 32.8222 22.3814 32.5677 22.3814C32.3132 22.3814 32.0587 22.3814 31.5498 22.127C31.0408 21.8727 30.7863 21.8727 30.2774 21.8727C29.514 21.8727 28.7505 22.6357 28.7505 23.3987C28.7505 24.1617 29.2595 24.6704 30.0229 24.9247L31.0408 25.4334C31.8043 25.6877 32.0587 25.942 32.0587 26.1964C32.0587 26.4507 31.8043 26.7051 31.5498 26.7051C31.2953 26.7051 31.2953 26.7051 30.7863 26.4507C29.7684 26.1964 29.2595 25.942 28.7505 25.942C27.9871 25.942 27.2236 26.1964 26.7147 26.7051C26.7147 26.7051 26.7147 26.7051 26.4602 26.7051C26.4602 26.7051 26.4602 26.7051 26.2057 26.7051H25.9513C25.9513 26.7051 25.6968 26.7051 25.6968 26.9594V27.2137L25.4423 26.9594V26.7051V26.4507V26.1964V25.942V25.6877C25.4423 25.6877 25.4423 25.6877 25.4423 25.942C25.4423 26.1964 25.6968 26.4507 25.6968 26.4507C25.6968 26.4507 25.9513 26.1964 25.9513 25.942C25.9513 25.942 25.9513 25.942 25.9513 26.1964C25.9513 26.1964 25.9513 26.4507 26.2057 26.4507C26.2057 26.4507 26.2057 26.4507 26.4602 26.4507C26.4602 26.4507 26.7147 26.1964 26.7147 25.942V25.6877C26.7147 25.6877 26.7147 25.6877 26.9692 25.6877L26.7147 25.4334V25.179C26.7147 25.179 26.7147 25.179 26.4602 25.179C26.7147 24.9247 26.9692 24.6704 26.9692 23.9074C26.9692 23.653 26.9692 23.3987 27.2237 23.1444C27.2237 23.1444 27.2237 23.1444 27.2237 23.3987C27.2237 23.3987 27.2237 23.3987 27.2237 23.653L27.4781 23.3987C27.4781 23.3987 27.7326 23.1444 27.7326 22.89V22.6357C27.7326 22.6357 27.7326 22.6357 27.4781 22.6357V22.3814V22.127H27.2237C27.2237 22.127 27.2236 22.127 26.9692 22.127C26.7147 22.3814 26.7147 22.3814 26.7147 22.3814V22.127C26.7147 21.8727 26.4602 21.6183 26.4602 21.364C26.2057 21.6183 26.2057 21.8727 26.2057 22.127V22.3814L25.9513 22.127C25.9513 22.127 25.9512 22.127 25.6968 21.8727C25.6968 22.127 25.4423 22.127 25.4423 22.3814C25.4423 22.6357 25.4423 22.6357 25.4423 22.6357C25.1878 22.6357 25.1878 22.6357 25.1878 22.6357C24.9333 22.6357 24.9333 22.89 24.9333 22.89C24.9333 22.89 24.9333 23.1444 25.1878 23.1444C25.1878 23.3987 25.4423 23.3987 25.4423 23.3987V23.1444V22.89C25.4423 22.89 25.6968 23.1444 25.6968 23.9074C25.6968 24.416 25.9513 24.6704 26.2057 24.9247C26.2057 24.9247 26.2057 24.9247 25.9513 24.9247L25.6968 25.179V25.942V26.9594C25.6968 27.2137 25.6968 27.4681 25.6968 27.7224C25.6968 27.9767 25.6968 28.2311 25.6968 28.2311C25.9512 30.2657 25.4423 30.7744 24.6789 31.0288ZM26.9692 24.416C26.9692 24.416 27.2236 24.416 26.9692 24.416L27.2237 24.1617H27.4781V24.416L27.2237 24.6704V24.9247L26.9692 24.416ZM26.2057 24.1617C26.4602 24.1617 26.7147 24.416 26.7147 24.416C26.9692 24.416 26.9692 24.416 26.9692 24.6704C26.9692 24.6704 26.9692 24.6704 26.9692 24.9247C26.9692 24.9247 26.9692 24.9247 26.9692 25.179C26.9692 25.4334 26.9692 25.4334 26.7147 25.4334C26.7147 25.4334 26.4602 25.4334 26.4602 25.179C26.2057 24.416 26.2057 24.1617 26.2057 24.1617ZM26.2057 25.4334C26.2057 25.179 26.2057 25.179 26.2057 25.4334C26.4602 25.179 26.4602 25.179 26.4602 25.179H26.7147C26.7147 25.179 26.7147 25.179 26.9692 25.179H27.2237H27.4781C27.4781 25.179 27.7326 25.179 27.7326 25.4334C27.7326 25.6877 27.7326 25.6877 27.4781 25.942V26.1964C27.4781 26.4507 27.2237 26.4507 27.2237 26.4507C26.9692 26.4507 26.9692 26.4507 26.7147 25.942C26.2057 25.6877 26.2057 25.4334 26.2057 25.4334Z" fill="white"/>
<path d="M29.2595 29.2485C29.005 29.2485 29.005 29.2485 29.2595 29.2485C29.005 29.2485 29.005 29.2485 29.005 29.2485C29.005 29.2485 28.7505 29.2485 28.7505 29.5029C28.7505 29.5029 28.7506 29.7572 28.4961 29.7572L28.2416 30.0115C27.9871 30.2659 27.7326 30.5202 27.7326 30.7745C27.7326 30.7745 27.7326 31.0289 27.7326 31.2832C27.7326 31.5376 27.9871 31.7919 27.9871 31.7919C27.9871 32.3006 27.2237 33.0636 25.6968 33.8266C24.9334 34.3352 24.6789 34.3352 24.6789 35.0982V35.3526C24.9334 35.0982 24.9334 35.0982 25.1878 35.0982C25.4423 35.0982 25.6968 34.8439 25.6968 34.5896C25.6968 34.3352 25.6968 34.3352 25.9513 34.0809C25.9513 34.0809 25.9513 34.0809 26.2058 34.0809C26.2058 34.0809 26.2058 34.0809 26.2058 34.3352C26.2058 34.3352 26.2058 34.3352 26.2058 34.5896C26.2058 34.8439 26.2058 34.8439 26.4602 35.0982C26.4602 34.8439 26.4602 34.8439 26.7147 34.8439C26.9692 34.5896 26.9692 34.5896 26.9692 34.0809C26.9692 33.8266 26.9692 33.8266 26.9692 33.8266V34.0809C26.9692 34.0809 26.9692 34.0809 27.2237 34.0809L27.4782 33.8266C27.4782 33.8266 27.4782 33.5722 27.7326 33.3179V33.0636V33.3179C27.7326 33.3179 27.7326 33.3179 27.9871 33.0636V32.8092V32.5549C27.9871 32.5549 27.9871 32.5549 28.2416 32.3006C28.2416 32.3006 28.2416 32.3006 28.2416 32.0462C27.9871 31.7919 27.9871 31.5376 27.9871 31.2832C27.9871 31.0289 28.2416 30.5202 28.4961 30.0115C29.2595 29.7572 29.2595 29.5029 29.2595 29.2485Z" fill="white"/>
<path d="M23.661 25.6877C23.9155 25.942 23.9154 25.942 23.9154 25.942C23.9154 25.942 23.9154 25.942 23.9154 26.1964V26.4507C23.9154 26.4507 23.9154 26.4507 23.9154 26.705V26.9594V27.2137V27.468C23.9154 27.468 23.9154 27.468 24.1699 27.7224C24.4244 27.7224 24.4244 27.7224 24.4244 27.7224C24.4244 27.7224 24.4244 27.7224 24.4244 27.9767V28.2311C24.4244 28.4854 24.4244 28.4854 24.6789 28.4854C24.9334 28.4854 25.1878 28.2311 25.4423 28.2311C25.6968 28.2311 25.9513 28.2311 25.9513 28.2311C25.9513 28.2311 25.9513 28.2311 25.9513 27.9767V27.7224V27.468V27.2137V26.9594C25.1879 27.9767 25.1879 27.9767 24.9334 27.9767C24.4244 27.9767 24.1699 27.468 24.1699 26.4507C24.1699 25.942 24.1699 25.4334 24.4244 24.6704C24.4244 24.416 24.4244 24.416 24.4244 24.416C24.4244 24.1617 24.1699 23.653 23.661 23.3987V23.653C23.661 23.653 23.661 23.653 23.661 23.9074C23.661 24.1617 23.661 24.1617 23.661 24.1617C23.661 24.416 23.661 24.416 23.9154 24.6704V24.9247H23.661H23.4065C23.4065 25.179 23.4065 25.179 23.661 25.4334C23.4065 25.4334 23.4065 25.6877 23.661 25.6877Z" fill="white"/>
<path d="M24.6789 25.6881L24.9333 25.4337C24.9333 25.4337 24.9333 25.4337 24.9333 25.1794C24.9333 25.1794 24.9334 24.925 24.6789 24.925C24.6789 24.925 24.6789 24.925 24.6789 25.1794V25.4337V25.6881Z" fill="white"/>
<path d="M23.661 30.7746C23.9155 31.0289 23.9154 31.0289 24.1699 31.0289C24.1699 31.0289 24.1699 31.0289 24.4244 31.0289H24.6789C24.6789 31.0289 24.6789 31.0289 24.4244 30.7746C24.4244 30.7746 24.1699 30.7746 24.1699 30.5203H23.9154C23.661 30.5203 23.661 30.5203 23.4065 30.7746C23.661 30.5203 23.661 30.5203 23.661 30.7746Z" fill="white"/>
<path d="M25.4423 33.5721C25.6968 33.5721 25.6968 33.3178 25.6968 33.3178C25.9513 33.3178 25.9513 33.0635 25.9513 33.0635C25.9513 33.0635 25.9513 33.0635 25.6968 33.0635C25.1879 33.0635 24.9334 33.3178 24.9334 33.8265V34.0808C25.1879 33.8265 25.1879 33.5721 25.4423 33.5721Z" fill="white"/>
<path d="M30.2774 30.7746C30.7864 30.5203 30.7864 30.5203 30.7864 30.5203C30.7864 30.5203 30.7864 30.5203 30.5319 30.5203C30.2775 30.5203 30.023 30.7746 29.7685 31.0289C30.023 31.0289 30.0229 31.0289 30.0229 31.0289L30.2774 30.7746C30.023 30.7746 30.023 30.7746 30.2774 30.7746Z" fill="white"/>
<path d="M26.7147 25.9423C26.7147 26.1966 26.7147 26.1966 26.7147 25.9423C26.9692 26.1966 26.9692 25.9423 27.2237 25.6879C27.2237 25.6879 27.2237 25.6879 27.2237 25.4336C27.2237 25.4336 27.2237 25.4336 26.9692 25.4336C26.9692 25.4336 26.9692 25.4336 26.9692 25.6879L26.7147 25.9423Z" fill="white"/>
<path d="M15.2633 17.0404C15.5177 17.0404 15.5177 16.7861 15.5177 16.7861C15.5177 16.5317 15.2633 16.5317 15.2633 16.5317C15.0088 16.5317 15.0088 16.7861 15.0088 16.7861C15.0088 17.0404 15.0088 17.0404 15.2633 17.0404Z" fill="white"/>
<path d="M20.8617 17.0404C21.1162 17.0404 21.1162 16.7861 21.1162 16.7861C21.1162 16.5317 20.8617 16.5317 20.8617 16.5317C20.6073 16.5317 20.6072 16.7861 20.6072 16.7861C20.6072 17.0404 20.6073 17.0404 20.8617 17.0404Z" fill="white"/>
<path d="M15.2633 19.8383C15.5177 19.8383 15.5177 19.5839 15.5177 19.5839C15.5177 19.3296 15.2633 19.3296 15.2633 19.3296C15.0088 19.3296 15.0088 19.5839 15.0088 19.5839C15.0088 19.5839 15.0088 19.8383 15.2633 19.8383Z" fill="white"/>
<path d="M20.8617 19.8383C21.1162 19.8383 21.1162 19.5839 21.1162 19.5839C21.1162 19.3296 20.8617 19.3296 20.8617 19.3296C20.6073 19.3296 20.6072 19.5839 20.6072 19.5839C20.6072 19.5839 20.6073 19.8383 20.8617 19.8383Z" fill="white"/>
<path d="M19.5894 18.0579C19.0804 17.5493 18.5714 17.2949 17.808 17.2949C17.0445 17.2949 16.5356 17.5493 16.0266 18.0579C16.5356 18.5666 17.0445 18.8209 17.808 18.8209C18.8259 19.0753 19.0804 18.8209 19.5894 18.0579ZM16.5356 18.0579C17.0445 17.8036 17.299 17.5493 17.808 17.5493C18.3169 17.5493 18.5714 17.8036 19.0804 18.0579C18.5714 18.5666 18.3169 18.5666 17.808 18.5666C17.5535 18.8209 17.0445 18.5666 16.5356 18.0579Z" fill="white"/>
<path d="M18.0624 17.8035C17.808 17.8035 17.5535 17.8035 17.299 18.0578C17.5535 18.3121 17.808 18.3121 18.0624 18.3121C18.3169 18.3121 18.5714 18.3121 18.8259 18.0578C18.5714 17.8035 18.3169 17.8035 18.0624 17.8035Z" fill="white"/>
<path d="M16.0266 15.7688V15.2601C16.0266 15.0058 16.0266 14.7515 15.7722 14.7515C15.7722 14.7515 15.7722 14.7515 15.5177 14.7515V15.0058V15.2601C15.5177 15.5145 15.7722 15.5145 15.7722 15.5145C16.0266 16.2775 16.0266 16.2775 16.0266 15.7688Z" fill="white"/>
<path d="M18.317 15.7688V15.2601C18.317 15.0058 18.317 14.7515 18.0625 14.7515C17.808 14.7515 17.808 15.0058 17.808 15.2601V15.5145V15.7688C17.808 16.0231 18.0625 16.0231 18.0625 16.0231C18.317 16.2775 18.317 16.2775 18.317 15.7688Z" fill="white"/>
<path d="M20.3528 15.7688V15.2601C20.3528 15.0058 20.3528 14.7515 20.0983 14.7515C20.0983 14.7515 20.0983 14.7515 19.8438 14.7515V15.0058V15.2601C19.8438 15.5145 20.0983 15.5145 20.0983 15.5145C20.3528 16.2775 20.3528 16.2775 20.3528 15.7688Z" fill="white"/>
<path d="M16.0266 21.364H15.2632V22.127H16.0266V21.364Z" fill="white"/>
<path d="M16.0266 22.3816H15.2632V22.6359H16.0266V22.3816Z" fill="white"/>
<path d="M20.6072 21.364H19.8438V22.127H20.6072V21.364Z" fill="white"/>
<path d="M20.6072 22.3816H19.8438V22.6359H20.6072V22.3816Z" fill="white"/>
</svg>
