<svg width="99" height="41" viewBox="0 0 99 41" fill="none" xmlns="http://www.w3.org/2000/svg">
<path d="M35.8195 25.4507C33.7836 22.9074 31.7478 21.6357 31.7478 21.6357C29.4575 20.364 26.4038 20.364 26.4038 20.364C25.8948 21.89 24.3679 22.653 22.5866 22.653C22.0776 22.653 21.3142 22.3987 20.8052 22.1444C18.5149 25.1964 18.7694 27.7397 18.7694 27.9941C19.0239 32.0634 22.8411 40.2022 38.1098 40.2022C38.3642 40.2022 39.6366 30.2831 35.8195 25.4507Z" fill="white"/>
<path d="M23.3501 4.59541C19.0239 0.271711 11.1351 -1.2543 0.955933 3.32373C0.955933 3.32373 4.00967 16.2948 17.7515 18.3295C18.006 18.3295 18.515 18.3295 18.7694 18.3295C19.0239 16.2948 20.5508 14.5145 22.8411 14.5145C23.35 14.5145 23.859 14.5145 24.1135 14.7688C28.1851 8.91911 23.859 5.10408 23.3501 4.59541Z" fill="white"/>
<path d="M21.0597 22.3988C19.7873 21.8901 18.7694 20.3641 18.7694 18.8381V18.5837C17.497 18.3294 16.7336 18.5837 16.7336 18.5837C12.4074 18.5837 8.33578 20.6184 6.80891 21.8901C1.21038 26.4681 0.701416 33.5895 0.701416 33.5895C0.955895 33.5895 11.135 34.8612 17.2425 29.0115C17.7515 28.5028 18.5149 27.7398 19.0239 26.9768C19.0239 26.9768 19.2784 26.7225 19.5329 26.2138C19.5329 24.9421 20.0418 23.9248 21.0597 22.3988Z" fill="white"/>
<path d="M87.7331 9.93652C84.6794 9.93652 82.1346 11.2082 80.6077 13.2429V12.2255C80.6077 10.9539 79.5898 9.93652 78.3174 9.93652C77.045 9.93652 76.0271 10.9539 76.0271 12.2255V38.1677C76.0271 39.4394 77.045 40.4568 78.3174 40.4568C79.5898 40.4568 80.6077 39.4394 80.6077 38.1677V29.0117C82.3891 31.0464 85.1883 32.0637 87.7331 32.0637C93.0772 32.0637 98.1667 28.2487 98.1667 20.8729C97.9122 13.7516 92.5682 9.93652 87.7331 9.93652ZM87.2242 27.74C83.9159 27.74 80.8622 25.451 80.8622 20.8729C80.8622 16.2949 84.1704 14.0059 87.2242 14.0059C90.2779 14.0059 93.5861 16.2949 93.5861 20.8729C93.3316 25.451 90.2779 27.74 87.2242 27.74Z" fill="white"/>
<path d="M60.7583 32.0637C63.8121 32.0637 66.3569 30.7921 67.8837 28.7574V29.7747C67.8837 31.0464 68.9016 32.0637 70.174 32.0637C71.4464 32.0637 72.4643 31.0464 72.4643 29.7747V4.08687C72.4643 2.81519 71.4464 1.79785 70.174 1.79785C68.9016 1.79785 67.8837 2.81519 67.8837 4.08687V13.2429C66.1024 11.2083 63.3031 10.1909 60.7583 10.1909C55.4143 10.1909 50.3247 14.0059 50.3247 21.3817C50.3247 28.5031 55.9232 32.0637 60.7583 32.0637ZM61.2673 14.2603C64.5755 14.2603 67.6292 16.5493 67.6292 21.1273C67.6292 25.7054 64.321 27.9944 61.2673 27.9944C58.2135 27.9944 54.9053 25.7054 54.9053 21.1273C55.1598 16.5493 58.2135 14.2603 61.2673 14.2603Z" fill="white"/>
<path d="M45.2351 0.526123C43.4538 0.526123 41.9269 2.05213 41.9269 3.83248C41.9269 5.61283 43.4538 7.13884 45.2351 7.13884C47.0165 7.13884 48.5433 5.61283 48.5433 3.83248C48.5433 2.05213 47.271 0.526123 45.2351 0.526123Z" fill="white"/>
<path d="M45.2351 9.93652C43.9627 9.93652 42.9448 10.9539 42.9448 12.2255V29.7747C42.9448 31.0464 43.9627 32.0637 45.2351 32.0637C46.5075 32.0637 47.5255 31.0464 47.5255 29.7747V23.162V18.3296V12.4799C47.7799 11.2082 46.762 9.93652 45.2351 9.93652Z" fill="white"/>
</svg>
