<svg xmlns="http://www.w3.org/2000/svg" viewBox="0 0 77.47 22.75"><defs><style>.cls-1{fill:#ffffff;}.cls-2{fill:#ffffff;}</style></defs><g id="Warstwa_2" data-name="Warstwa 2"><g id="Layer_1" data-name="Layer 1"><polygon class="cls-1" points="0 0.6 5.51 0.6 5.51 22.15 0 22.15 0 0.6 0 0.6"/><polygon class="cls-1" points="7.79 0.6 24.45 0.6 24.45 5 13.3 5 13.3 8.96 24.42 8.96 24.42 13.28 13.3 13.28 13.3 17.74 24.51 17.74 24.51 22.15 7.79 22.15 7.79 0.6 7.79 0.6"/><polygon class="cls-1" points="26.58 0.6 32.13 0.6 32.13 17.47 42.26 17.47 42.26 22.15 26.58 22.15 26.58 0.6 26.58 0.6"/><polygon class="cls-1" points="44.33 4.97 38.15 4.97 38.15 0.6 56.04 0.6 56.04 4.97 49.84 4.97 49.84 22.15 44.33 22.15 44.33 4.97 44.33 4.97"/><path class="cls-1" d="M61.58,15c.06,2.45,1.43,3.71,4.07,3.71,2.31,0,3.54-.81,3.54-2.13a1.63,1.63,0,0,0-.84-1.52c-1.29-.66-3.75-1.08-6.89-2.34s-4.74-3.3-4.74-6c0-4,3.21-6.74,8.6-6.74s8.45,2.82,8.45,7.1H68.59c-.24-2-1.41-2.93-3.63-2.93-1.86,0-3,.87-3,1.94,0,1.62,1.68,2,5.07,3.06,2.49.81,4.29,1.38,5.34,2.22a5.65,5.65,0,0,1,2.12,4.55c0,4.2-3.32,6.81-9.38,6.81-5.6,0-8.51-2.55-8.84-7.76Z"/><polygon class="cls-2" points="73.5 0.98 72.78 0.98 72.78 0.55 74.71 0.55 74.71 0.98 74 0.98 74 2.97 73.5 2.97 73.5 0.98 73.5 0.98"/><polygon class="cls-2" points="75.03 0.55 75.77 0.55 76.25 2.39 76.73 0.55 77.47 0.55 77.47 2.97 77 2.97 77 1.01 76.51 2.97 76 2.97 75.5 1.01 75.5 2.97 75.03 2.97 75.03 0.55 75.03 0.55"/></g></g></svg>
